<svg width="24" height="24" viewBox="0 0 24 24" fill="none" xmlns="http://www.w3.org/2000/svg">
<g clip-path="url(#clip0_4993_2978)">
<path d="M18 3C18 2.20435 18.3161 1.44129 18.8787 0.878679C19.4414 0.31607 20.2044 0 21 0H7.28571C6.49006 0 5.727 0.31607 5.16439 0.878679C4.60178 1.44129 4.28571 2.20435 4.28571 3V18.8571C4.28571 20.2591 3.61257 21.5038 2.57184 22.2857H0.857143C0.383757 22.2857 0 22.6695 0 23.1429C0 23.6162 0.383757 24 0.857143 24H13.7143C14.8509 24 15.941 23.5485 16.7447 22.7448C17.5485 21.941 18 20.8509 18 19.7143V3Z" fill="#8FBFFA"/>
<path d="M21 0C21.7956 0 22.5586 0.31607 23.1213 0.878679C23.6839 1.44129 24 2.20435 24 3V6C24 6.22733 23.9097 6.44535 23.749 6.60609C23.5882 6.76683 23.3702 6.85714 23.1429 6.85714H18V3C18 2.20435 18.3161 1.44129 18.8787 0.878679C19.4414 0.31607 20.2044 0 21 0Z" fill="#2859C5"/>
<path fill-rule="evenodd" clip-rule="evenodd" d="M8.87509 6.00014C8.87509 5.4084 9.3548 4.92871 9.94652 4.92871H13.2678C13.8595 4.92871 14.3392 5.4084 14.3392 6.00014C14.3392 6.59188 13.8595 7.07157 13.2678 7.07157H9.94652C9.3548 7.07157 8.87509 6.59188 8.87509 6.00014ZM6.66089 11.143C6.66089 10.5513 7.14058 10.0716 7.73232 10.0716H13.2678C13.8595 10.0716 14.3392 10.5513 14.3392 11.143C14.3392 11.7347 13.8595 12.2144 13.2678 12.2144H7.73232C7.14058 12.2144 6.66089 11.7347 6.66089 11.143ZM7.73232 15.2144C7.14058 15.2144 6.66089 15.6941 6.66089 16.2859C6.66089 16.8776 7.14058 17.3573 7.73232 17.3573H13.2678C13.8595 17.3573 14.3392 16.8776 14.3392 16.2859C14.3392 15.6941 13.8595 15.2144 13.2678 15.2144H7.73232Z" fill="#2859C5"/>
</g>
<defs>
<clipPath id="clip0_4993_2978">
<rect width="24" height="24" fill="white"/>
</clipPath>
</defs>
</svg>
