<svg width="25" height="24" viewBox="0 0 25 24" fill="none" xmlns="http://www.w3.org/2000/svg">
<g clip-path="url(#clip0_653_5536)">
<path fill-rule="evenodd" clip-rule="evenodd" d="M1.96429 0C1.01751 0 0.25 0.767511 0.25 1.71429V12C0.25 12.9468 1.01751 13.7143 1.96429 13.7143H8.82143C9.76821 13.7143 10.5357 12.9468 10.5357 12V1.71429C10.5357 0.767511 9.76821 0 8.82143 0H1.96429ZM13.9643 1.71429C13.9643 0.767511 14.7318 0 15.6786 0H22.5357C23.4825 0 24.25 0.767511 24.25 1.71429V5.16C24.25 6.10677 23.4825 6.87429 22.5357 6.87429H15.6786C14.7318 6.87429 13.9643 6.10677 13.9643 5.16V1.71429ZM13.9643 12C13.9643 11.0532 14.7318 10.2857 15.6786 10.2857H22.5357C23.4825 10.2857 24.25 11.0532 24.25 12V22.2857C24.25 23.2325 23.4825 24 22.5357 24H15.6786C14.7318 24 13.9643 23.2325 13.9643 22.2857V12ZM0.25 18.84C0.25 17.8932 1.01751 17.1257 1.96429 17.1257H8.82143C9.76821 17.1257 10.5357 17.8932 10.5357 18.84V22.2857C10.5357 23.2325 9.76821 24 8.82143 24H1.96429C1.01751 24 0.25 23.2325 0.25 22.2857V18.84Z" fill="#8FBFFA"/>
</g>
<defs>
<clipPath id="clip0_653_5536">
<rect width="24" height="24" fill="white" transform="translate(0.25)"/>
</clipPath>
</defs>
</svg>
