<svg width="25" height="24" viewBox="0 0 25 24" fill="none" xmlns="http://www.w3.org/2000/svg">
<g clip-path="url(#clip0_5235_784)">
<path fill-rule="evenodd" clip-rule="evenodd" d="M5.58005 12.9326L4.79878 12.2886L4.29253 13.1654L0.5141 19.7099C0.340759 20.01 0.365344 20.3851 0.57639 20.6603C0.787437 20.9352 1.14338 21.0561 1.47825 20.9664L4.73302 20.0942L5.60513 23.349C5.69485 23.6839 5.97747 23.9318 6.32118 23.9769C6.6649 24.0222 7.00203 23.856 7.17538 23.5557L10.4537 17.8775L10.8166 17.249L10.2566 16.7875L5.58005 12.9326ZM19.2191 12.9326L20.0005 12.2886L20.5067 13.1654L24.2852 19.7099C24.4585 20.01 24.4338 20.3851 24.2228 20.6603C24.0117 20.9352 23.6559 21.0561 23.3209 20.9664L20.0661 20.0942L19.1941 23.349C19.1044 23.6839 18.8217 23.9318 18.478 23.9769C18.1343 24.0222 17.7971 23.856 17.6238 23.5557L14.3455 17.8775L13.9827 17.249L14.5426 16.7875L19.2191 12.9326Z" fill="#2859C5"/>
<path fill-rule="evenodd" clip-rule="evenodd" d="M12.3951 0.0151367C7.54324 0.0151367 3.61002 3.94836 3.61002 8.80024C3.61002 13.6521 7.54324 17.5854 12.3951 17.5854C17.247 17.5854 21.1802 13.6521 21.1802 8.80024C21.1802 3.94836 17.247 0.0151367 12.3951 0.0151367Z" fill="#8FBFFA"/>
<path d="M12.7426 4.17024L13.913 6.52462C13.9391 6.58418 13.9806 6.63571 14.0332 6.67396C14.0858 6.71222 14.1476 6.73583 14.2124 6.74237L16.8117 7.13704C16.886 7.1467 16.956 7.17734 17.0136 7.22534C17.0711 7.27334 17.1138 7.33675 17.1367 7.40812C17.1595 7.4795 17.1615 7.55589 17.1426 7.62839C17.1236 7.70088 17.0844 7.76647 17.0294 7.81749L15.1106 9.64113C15.0819 9.69571 15.067 9.75641 15.067 9.81804C15.067 9.87967 15.0819 9.94037 15.1106 9.99496L15.478 12.5807C15.4937 12.6554 15.4873 12.7331 15.4598 12.8043C15.4322 12.8755 15.3845 12.9372 15.3225 12.9819C15.2606 13.0265 15.187 13.0522 15.1107 13.0559C15.0345 13.0596 14.9588 13.0411 14.8928 13.0026L12.5793 11.7778C12.5194 11.7507 12.4544 11.7367 12.3887 11.7367C12.323 11.7367 12.2581 11.7507 12.1982 11.7778L9.88464 13.0026C9.8187 13.0411 9.74299 13.0596 9.66671 13.0559C9.59044 13.0522 9.51686 13.0265 9.45493 12.9819C9.39297 12.9372 9.34531 12.8755 9.31771 12.8043C9.29013 12.7331 9.28379 12.6554 9.29946 12.5807L9.73495 9.99496C9.75367 9.93494 9.75727 9.87122 9.74539 9.80949C9.73351 9.74776 9.70657 9.68992 9.66691 9.64113L7.74801 7.80388C7.69711 7.75233 7.66139 7.68775 7.64476 7.61724C7.62813 7.54672 7.63122 7.47299 7.65371 7.40412C7.6762 7.33524 7.7172 7.27389 7.77225 7.22678C7.8273 7.17967 7.89424 7.14862 7.96576 7.13704L10.5651 6.75599C10.6298 6.74944 10.6916 6.72583 10.7442 6.68757C10.7968 6.64931 10.8383 6.59777 10.8645 6.53824L12.0349 4.18385C12.0662 4.1172 12.1155 4.06065 12.1773 4.02057C12.2391 3.98051 12.3109 3.95853 12.3845 3.9571C12.4581 3.95568 12.5307 3.9749 12.594 4.01256C12.6572 4.05023 12.7087 4.10484 12.7426 4.17024Z" fill="#2859C5"/>
</g>
<defs>
<clipPath id="clip0_5235_784">
<rect width="24" height="24" fill="white" transform="translate(0.400024)"/>
</clipPath>
</defs>
</svg>
