<svg width="25" height="24" viewBox="0 0 25 24" fill="none" xmlns="http://www.w3.org/2000/svg">
<g clip-path="url(#clip0_653_5434)">
<path d="M12.25 24C18.8774 24 24.25 18.6274 24.25 12C24.25 5.37258 18.8774 0 12.25 0C5.62258 0 0.25 5.37258 0.25 12C0.25 18.6274 5.62258 24 12.25 24Z" fill="#8FBFFA"/>
<path d="M12.2496 12.8571C14.6165 12.8571 16.5353 10.9383 16.5353 8.57136C16.5353 6.20442 14.6165 4.28564 12.2496 4.28564C9.88265 4.28564 7.96387 6.20442 7.96387 8.57136C7.96387 10.9383 9.88265 12.8571 12.2496 12.8571Z" fill="#2859C5"/>
<path d="M19.5235 17.9999C17.7942 15.9059 15.1779 14.5713 12.25 14.5713C9.32211 14.5713 6.70592 15.9059 4.97656 17.9999C6.70592 20.0939 9.32211 21.4285 12.25 21.4285C15.1779 21.4285 17.7942 20.0939 19.5235 17.9999Z" fill="#2859C5"/>
</g>
<defs>
<clipPath id="clip0_653_5434">
<rect width="24" height="24" fill="white" transform="translate(0.25)"/>
</clipPath>
</defs>
</svg>
