<svg width="25" height="24" viewBox="0 0 25 24" fill="none" xmlns="http://www.w3.org/2000/svg">
<path fill-rule="evenodd" clip-rule="evenodd" d="M12.7498 0.474609C12.4097 0.474609 12.0766 0.571926 11.79 0.755072C11.507 0.935877 11.2809 1.19288 11.1376 1.4964L8.41606 6.99084C8.41071 7.00164 8.40559 7.01254 8.4007 7.02357C8.39948 7.02629 8.39756 7.02867 8.39515 7.03044C8.39273 7.03221 8.3899 7.03332 8.38692 7.03365C8.37648 7.03479 8.36606 7.03615 8.35567 7.03769L2.36324 7.92545C2.03203 7.95766 1.71619 8.08195 1.45165 8.28458C1.17793 8.49425 0.970876 8.77879 0.855573 9.10373C0.74027 9.42867 0.721665 9.78009 0.802012 10.1154C0.882047 10.4494 1.05685 10.7531 1.30536 10.9901L5.69184 15.2224L5.70183 15.2319C5.70809 15.2378 5.7128 15.2451 5.71551 15.2532C5.71822 15.2613 5.71885 15.27 5.71735 15.2785L5.71639 15.2841L4.67112 21.4013C4.61369 21.7329 4.65005 22.0754 4.77658 22.387C4.90328 22.6994 5.1151 22.9697 5.38789 23.1675C5.66071 23.3652 5.98354 23.4825 6.31968 23.5058C6.65515 23.5291 6.99043 23.4579 7.28751 23.3006L7.28931 23.2995L12.6884 20.4461C12.7078 20.4377 12.7287 20.4333 12.7499 20.4333C12.771 20.4333 12.792 20.4377 12.8113 20.4461L18.2104 23.2995C18.5076 23.4574 18.8443 23.5293 19.18 23.5058C19.5161 23.4825 19.8389 23.3652 20.1118 23.1675C20.3846 22.9697 20.5965 22.6994 20.7232 22.387C20.8497 22.0754 20.8862 21.7346 20.8289 21.4032L20.8286 21.4013L19.7834 15.2841L19.7824 15.2785C19.7808 15.27 19.7815 15.2613 19.7842 15.2532C19.7868 15.2451 19.7916 15.2378 19.7978 15.2319L19.8079 15.2224L24.1944 10.9901C24.4428 10.7531 24.6177 10.4494 24.6977 10.1154C24.778 9.78009 24.7594 9.42867 24.6441 9.10373C24.5289 8.77879 24.3218 8.49425 24.048 8.28458C23.7835 8.08195 23.4677 7.95766 23.1365 7.92545L17.144 7.03769C17.1336 7.03615 17.1232 7.03479 17.1128 7.03365C17.1098 7.03332 17.107 7.03221 17.1045 7.03044C17.1021 7.02867 17.1002 7.02629 17.099 7.02357C17.0941 7.01254 17.089 7.00164 17.0836 6.99084L14.3621 1.49638C14.2188 1.19287 13.9927 0.935872 13.7097 0.755072C13.4231 0.571926 13.09 0.474609 12.7498 0.474609Z" fill="#8FBFFA"/>
</svg>
