<svg width="25" height="20" viewBox="0 0 25 20" fill="none" xmlns="http://www.w3.org/2000/svg">
<path fill-rule="evenodd" clip-rule="evenodd" d="M2.91712 19.3405C1.49697 19.3405 0.345703 18.1891 0.345703 16.769V13.3429C0.345703 12.9532 0.608657 12.6125 0.985697 12.5137C2.1014 12.2215 2.92357 11.2055 2.92357 9.99959C2.92357 8.7937 2.10142 7.77766 0.985697 7.48547C0.608657 7.38673 0.345703 7.04605 0.345703 6.65629V3.23012C0.345703 1.80997 1.49697 0.658691 2.91712 0.658691H21.583C23.0033 0.658691 24.1545 1.80995 24.1545 3.23012V6.66394C24.1545 7.05094 23.8953 7.38992 23.5217 7.4912C22.4169 7.79077 21.6053 8.80151 21.6053 9.99959C21.6053 11.1977 22.4169 12.2084 23.5217 12.508C23.8953 12.6093 24.1545 12.9483 24.1545 13.3353V16.769C24.1545 18.1891 23.0033 19.3405 21.583 19.3405H2.91712Z" fill="#8FBFFA"/>
<path fill-rule="evenodd" clip-rule="evenodd" d="M17.1458 19.3405H15.0029V16.4005C15.0029 15.8087 15.4826 15.329 16.0744 15.329C16.6661 15.329 17.1458 15.8087 17.1458 16.4005V19.3405ZM17.1458 0.658691V3.61292C17.1458 4.20466 16.6661 4.68435 16.0744 4.68435C15.4826 4.68435 15.0029 4.20466 15.0029 3.61292V0.658691H17.1458ZM17.1458 8.27039C17.1458 7.67866 16.6661 7.19897 16.0744 7.19897C15.4826 7.19897 15.0029 7.67866 15.0029 8.27039V11.7265C15.0029 12.3182 15.4826 12.7979 16.0744 12.7979C16.6661 12.7979 17.1458 12.3182 17.1458 11.7265V8.27039Z" fill="#2859C5"/>
</svg>
