<svg width="143" height="19" viewBox="0 0 143 19" fill="none" xmlns="http://www.w3.org/2000/svg">
<g clip-path="url(#clip0_392_6460)">
<path d="M135.281 0.0195312H124.952C120.879 0.0195312 117.576 3.12254 117.576 6.94897V12.0643C117.576 15.8907 120.879 18.9937 124.952 18.9937H135.281C139.354 18.9937 142.657 15.8907 142.657 12.0643V6.94897C142.657 3.12254 139.354 0.0195312 135.281 0.0195312ZM133.055 14.764C133.055 15.9115 132.064 16.8428 130.842 16.8428H126.414C125.192 16.8428 124.201 15.9115 124.201 14.764V4.24927C124.201 3.10174 125.192 2.17044 126.414 2.17044H130.842C132.064 2.17044 133.055 3.10174 133.055 4.24927V14.7626V14.764Z" fill="#010101"/>
<path d="M21.4658 4.31756L18.1585 11.8374C17.9741 12.2587 17.3074 12.134 17.3074 11.678V1.11061C17.3074 0.51606 16.794 0.0351562 16.1626 0.0351562H15.0179H12.699C9.71328 0.0351562 7.02262 1.72594 5.88232 4.31756L0.0879459 17.4918C-0.22331 18.2 0.329868 18.9789 1.14562 18.9789H8.20863C8.67183 18.9789 9.0893 18.717 9.26631 18.3136L14.1653 7.17665C14.3497 6.75533 15.0165 6.88005 15.0165 7.33601V17.9034C15.0165 18.498 15.5298 18.9789 16.1612 18.9789H17.3059H23.792C24.2553 18.9789 24.6727 18.717 24.8497 18.3136L29.7487 7.17665C29.9332 6.75533 30.5998 6.88005 30.5998 7.33601V17.9034C30.5998 18.498 31.1133 18.9789 31.7445 18.9789C32.3775 18.9789 32.8893 18.4966 32.8893 17.9034V1.11061C32.8893 0.51606 32.376 0.0351562 31.7445 0.0351562H30.5998H28.2809C25.2954 0.0351562 22.6047 1.72594 21.4643 4.31756H21.4658Z" fill="#010101"/>
<path d="M62.9883 6.95037V12.0657C62.9883 15.8921 66.2911 18.9951 70.364 18.9951H71.4452C72.078 18.9951 72.5899 18.5128 72.5899 17.9197V3.24727C72.5899 2.65273 73.1034 2.17182 73.7346 2.17182H80.299C80.9318 2.17182 81.4438 2.6541 81.4438 3.24727V7.3107C81.4438 7.90525 81.9572 8.38616 82.5885 8.38616H86.924C87.5567 8.38616 88.0687 7.90385 88.0687 7.3107V3.48426C88.0687 1.57034 86.4181 0.0195312 84.3808 0.0195312H70.364C66.2911 0.0195312 62.9883 3.12253 62.9883 6.94898V6.95037Z" fill="#010101"/>
<path d="M35.6953 6.94954V12.0649C35.6953 15.8913 38.9983 18.9943 43.071 18.9943H59.6312C60.264 18.9943 60.7759 18.512 60.7759 17.9189C60.7759 17.3243 60.2625 16.8434 59.6312 16.8434H46.4419C45.8091 16.8434 45.2972 16.3611 45.2972 15.768V11.6588C45.2972 11.0642 45.8104 10.5834 46.4419 10.5834H59.6312C60.264 10.5834 60.7759 10.101 60.7759 9.5079V3.48622C60.7759 1.57229 59.1251 0.0214844 57.0881 0.0214844H43.071C38.9983 0.0214844 35.6953 3.12449 35.6953 6.95093V6.94954ZM53.0063 8.43105H46.4419C45.8091 8.43105 45.2972 7.94877 45.2972 7.35562V3.24644C45.2972 2.6519 45.8104 2.17101 46.4419 2.17101H53.0063C53.6391 2.17101 54.151 2.65329 54.151 3.24644V7.35562C54.151 7.95016 53.6375 8.43105 53.0063 8.43105Z" fill="#010101"/>
<path d="M90.2812 6.94954V12.0649C90.2812 15.8913 93.584 18.9943 97.657 18.9943H114.217C114.85 18.9943 115.362 18.512 115.362 17.9189C115.362 17.3243 114.848 16.8434 114.217 16.8434H101.028C100.395 16.8434 99.8829 16.3611 99.8829 15.768V11.6588C99.8829 11.0642 100.396 10.5834 101.028 10.5834H114.217C114.85 10.5834 115.362 10.101 115.362 9.5079V3.48622C115.362 1.57229 113.711 0.0214844 111.674 0.0214844H97.657C93.584 0.0214844 90.2812 3.12449 90.2812 6.95093V6.94954ZM107.592 8.43105H101.028C100.395 8.43105 99.8829 7.94877 99.8829 7.35562V3.24644C99.8829 2.6519 100.396 2.17101 101.028 2.17101H107.592C108.225 2.17101 108.737 2.65329 108.737 3.24644V7.35562C108.737 7.95016 108.223 8.43105 107.592 8.43105Z" fill="#010101"/>
</g>
<defs>
<clipPath id="clip0_392_6460">
<rect width="143" height="19" fill="white"/>
</clipPath>
</defs>
</svg>
