<svg width="32" height="32" viewBox="0 0 32 32" fill="none" xmlns="http://www.w3.org/2000/svg">
<path fill-rule="evenodd" clip-rule="evenodd" d="M16 0C24.8366 0 32 7.16345 32 16C32 24.8366 24.8366 32 16 32C7.16345 32 0 24.8366 0 16C0 7.16345 7.16345 0 16 0Z" fill="#8FBFFA"/>
<path fill-rule="evenodd" clip-rule="evenodd" d="M20.0018 31.4956C18.7228 31.825 17.3819 32.0001 16 32.0001C10.2571 32.0001 5.22088 28.9745 2.39844 24.4302C4.32321 21.7408 7.00884 19.8572 10.4477 19.8572C16.3603 19.8572 19.4758 24.7297 19.9224 30.0778C19.9607 30.5363 19.9914 31.0186 20.0018 31.4956ZM29.8839 23.9578C28.1655 26.9496 25.5077 29.3331 22.3132 30.7064C22.3798 30.4211 22.4032 30.1226 22.3779 29.8193C22.1325 26.8801 21.1438 23.8892 19.2116 21.573C19.108 21.4488 19.0019 21.327 18.8935 21.2075C20.0895 20.6023 21.4126 20.2858 22.7564 20.2858C24.2243 20.2858 25.6672 20.6634 26.947 21.3822C27.5006 21.6931 28.0154 22.0634 28.4832 22.4849L29.8839 23.9578ZM15.9413 12.5444C15.9413 9.7102 13.6437 7.4126 10.8095 7.4126C7.97524 7.4126 5.67764 9.7102 5.67764 12.5444C5.67764 15.3787 7.97524 17.6763 10.8095 17.6763C13.6437 17.6763 15.9413 15.3787 15.9413 12.5444ZM22.7154 9.78259C25.0636 9.78259 26.9669 11.6861 26.9669 14.0342C26.9669 16.3823 25.0636 18.2858 22.7154 18.2858C20.3673 18.2858 18.4638 16.3823 18.4638 14.0342C18.4638 11.6861 20.3673 9.78259 22.7154 9.78259Z" fill="#2859C5"/>
</svg>
