<svg width="32" height="32" viewBox="0 0 32 32" fill="none" xmlns="http://www.w3.org/2000/svg">
<path fill-rule="evenodd" clip-rule="evenodd" d="M16.0002 15.9999C17.8929 15.9999 19.4273 14.4655 19.4273 12.5727C19.4273 10.6799 17.8929 9.14551 16.0002 9.14551C14.1074 9.14551 12.573 10.6799 12.573 12.5727C12.573 14.4655 14.1074 15.9999 16.0002 15.9999ZM10.246 20.3254C11.4687 18.4443 13.5889 17.2002 15.9997 17.2002C18.4105 17.2002 20.5307 18.4443 21.7533 20.3254C22.1832 20.9868 21.6392 21.7716 20.8505 21.7716H11.1488C10.3601 21.7716 9.81621 20.9868 10.246 20.3254Z" fill="#2859C5"/>
<path fill-rule="evenodd" clip-rule="evenodd" d="M12.7473 3.86076C16.536 2.84558 20.3864 3.67406 23.3432 5.80003L21.951 7.1923C21.231 7.91226 21.7409 9.14327 22.7591 9.14327H28.0001C28.6312 9.14327 29.143 8.63159 29.143 8.00042V2.75952C29.143 1.74134 27.9119 1.23144 27.1919 1.9514L25.7926 3.35077C21.9787 0.402821 16.8793 -0.795924 11.86 0.549004C3.72554 2.72862 -1.25543 10.7992 0.275732 18.9417C0.450702 19.8722 1.34683 20.4846 2.2773 20.3097C3.20776 20.1347 3.82021 19.2386 3.64524 18.3081C2.44284 11.9139 6.35777 5.57283 12.7473 3.86076ZM31.7252 13.0591C31.5501 12.1286 30.6541 11.5162 29.7236 11.6911C28.7931 11.8661 28.1807 12.7622 28.3556 13.6927C29.5581 20.087 25.6431 26.4281 19.2535 28.1401C15.4647 29.1554 11.6142 28.3266 8.6572 26.2004L10.0492 24.8086C10.7691 24.0886 10.2592 22.8575 9.24103 22.8575H4.00014C3.36897 22.8575 2.85729 23.3693 2.85729 24.0004V29.2413C2.85729 30.2594 4.0883 30.7693 4.80826 30.0493L6.20794 28.6498C10.0218 31.5979 15.1214 32.7967 20.1409 31.4518C28.2753 29.2722 33.2564 21.2016 31.7252 13.0591Z" fill="#8FBFFA"/>
</svg>
