
<svg width="40" height="40" viewBox="0 0 40 40" fill="none" xmlns="http://www.w3.org/2000/svg">
<g clip-path="url(#clip0_380_3009)">
<path d="M30.9418 20.3431V12.9428C30.9418 12.5069 30.5643 12.0721 30.0598 12.0721H27.4763C25.2705 12.0721 23.2544 13.4403 22.3723 15.4932L19.9147 21.4019C19.7889 21.7134 19.2843 21.589 19.2843 21.2775V12.9428C19.2843 12.5069 18.9068 12.0721 18.4022 12.0721H15.8188C13.6129 12.0721 11.5969 13.4403 10.7148 15.4932L6.36713 25.8192C6.17835 26.3795 6.5559 27.0014 7.18633 27.0014H12.4802C12.7949 27.0014 13.1106 26.8142 13.2365 26.5039L16.892 17.7332C17.0809 17.36 17.5853 17.4845 17.5853 17.8575V26.1307C17.5853 26.6282 17.9629 27.0014 18.4046 27.0014H24.1389C24.4536 27.0014 24.7693 26.8142 24.8952 26.5039L28.6136 17.7332C28.7395 17.36 29.244 17.4845 29.244 17.8575V20.2197C29.1602 25.7374 31.1574 26.9935 32.8494 27.2995C36.7671 28.01 39.0954 24.7512 39.6419 19.972C41.0916 7.27606 28.658 -2.54012 15.3259 0.585137C7.79112 2.35228 2.01361 8.22742 0.446302 15.7139C-2.26299 28.6531 7.73751 40 20.2922 40C25.3275 40 30.0434 38.2161 33.7572 34.9865C34.2956 34.5181 34.3259 33.699 33.8177 33.1971L33.6185 33.0009C33.1524 32.5404 32.4078 32.5258 31.9126 32.9561C28.6916 35.7485 24.6249 37.2636 20.2922 37.2636C10.6507 37.2636 2.77339 29.5508 2.77339 19.971C2.77339 10.3912 10.6496 2.7411 20.2922 2.7411C29.9351 2.7411 37.0677 9.2729 37.1936 18.54C37.2566 23.2677 35.2815 25.3878 33.7036 25.2074C32.1259 25.0269 31.1249 24.2662 30.943 20.3419L30.9418 20.3431Z" fill="black"/>
</g>
<defs>
<clipPath id="clip0_380_3009">
<rect width="39.7574" height="40" fill="white"/>
</clipPath>
</defs>
</svg>
