<svg width="45" height="45" viewBox="0 0 45 45" fill="none" xmlns="http://www.w3.org/2000/svg">
<g clip-path="url(#clip0_3521_6511)">
<mask id="mask0_3521_6511" style="mask-type:luminance" maskUnits="userSpaceOnUse" x="0" y="0" width="45" height="45">
<path d="M0 0H45V45H0V0Z" fill="white"/>
</mask>
<g mask="url(#mask0_3521_6511)">
<path d="M13.7836 16.7586C18.5976 12.064 26.4029 12.064 31.2169 16.7586L31.7962 17.3235C32.037 17.5582 32.037 17.9388 31.7962 18.1735L29.8143 20.1062C29.694 20.2236 29.4989 20.2236 29.3785 20.1062L28.5812 19.3287C25.2228 16.0537 19.7778 16.0537 16.4193 19.3287L15.5654 20.1613C15.445 20.2787 15.25 20.2787 15.1296 20.1613L13.1477 18.2286C12.9069 17.9939 12.9069 17.6133 13.1477 17.3787L13.7836 16.7586ZM35.3158 20.7556L37.0797 22.4757C37.3204 22.7104 37.3204 23.091 37.0797 23.3256L29.1259 31.0818C28.8853 31.3166 28.495 31.3166 28.2543 31.0818L22.6093 25.5771C22.5491 25.5184 22.4515 25.5184 22.3914 25.5771L16.7463 31.0818C16.5057 31.3166 16.1154 31.3166 15.8747 31.0818L7.92076 23.3255C7.68006 23.0908 7.68006 22.7103 7.92076 22.4756L9.68471 20.7555C9.92541 20.5208 10.3157 20.5208 10.5564 20.7555L16.2015 26.2603C16.2617 26.319 16.3592 26.319 16.4194 26.2603L22.0643 20.7555C22.305 20.5207 22.6952 20.5207 22.936 20.7555L28.5811 26.2603C28.6413 26.319 28.7388 26.319 28.799 26.2603L34.4442 20.7556C34.6848 20.5208 35.0751 20.5208 35.3158 20.7556Z" fill="white"/>
</g>
</g>
<defs>
<clipPath id="clip0_3521_6511">
<rect width="45" height="45" fill="white"/>
</clipPath>
</defs>
</svg>
