<svg width="32" height="32" viewBox="0 0 32 32" fill="none" xmlns="http://www.w3.org/2000/svg">
<path d="M16 32C24.8366 32 32 24.8366 32 16C32 7.16344 24.8366 0 16 0C7.16344 0 0 7.16344 0 16C0 24.8366 7.16344 32 16 32Z" fill="#8FBFFA"/>
<path d="M16.0004 17.1429C19.1563 17.1429 21.7147 14.5846 21.7147 11.4286C21.7147 8.27273 19.1563 5.71436 16.0004 5.71436C12.8445 5.71436 10.2861 8.27273 10.2861 11.4286C10.2861 14.5846 12.8445 17.1429 16.0004 17.1429Z" fill="#2859C5"/>
<path d="M25.6977 24.0002C23.3919 21.2081 19.9036 19.4287 15.9997 19.4287C12.0958 19.4287 8.60756 21.2081 6.30176 24.0002C8.60756 26.7922 12.0958 28.5716 15.9997 28.5716C19.9036 28.5716 23.3919 26.7922 25.6977 24.0002Z" fill="#2859C5"/>
</svg>
