<svg width="104" height="40" viewBox="0 0 104 40" fill="none" xmlns="http://www.w3.org/2000/svg">
<path d="M27.5877 18.5471C29.2333 19.9279 30.4318 21.865 30.4318 24.1319V32.7872C30.4318 37.5477 26.7955 39.9175 23.1591 39.9175C19.4821 39.9175 15.8457 37.5477 15.8457 32.7872L15.8863 29.3869H20.5994V32.6842C20.5994 33.7352 21.1073 35.1365 23.1591 35.1365C25.1703 35.1365 25.6985 33.7352 25.6985 32.6842V24.2555C25.6985 21.4734 23.5857 20.9582 21.5745 20.9582V16.2184C23.5857 16.2184 25.6985 15.6208 25.6985 12.8387V7.2334C25.6985 6.16179 25.1703 4.78103 23.1591 4.78103C21.1073 4.78103 20.5588 6.16179 20.5588 7.2334V10.51H15.8863L15.8457 7.10973C15.8457 2.36991 19.4821 0 23.1591 0C26.7955 0 30.4318 2.36991 30.4318 7.10973V12.9624C30.4318 15.2292 29.2333 17.1664 27.5877 18.5471Z" fill="#1DD836"/>
<path d="M5.03811 0.474121L6.94772 32.7255L8.89795 0.474121H13.8548L11.092 39.9589H2.76284L0 0.474121H5.03811Z" fill="white"/>
<path fill-rule="evenodd" clip-rule="evenodd" d="M39.2891 24.2144H37.7452V39.9589H32.9915V0.474121H39.8985C45.3429 0.474121 47.1307 3.0913 47.1307 12.3443C47.1307 17.8878 46.2774 21.4324 44.0022 23.081L47.4963 39.9589H42.6004L39.2891 24.2144ZM38.5984 19.3922C41.9504 19.3922 42.4176 17.2695 42.4176 12.3443C42.4176 6.30613 41.9097 5.29636 38.5984 5.29636H37.7655V19.3922H38.5984Z" fill="white"/>
<path d="M54.444 0.474121V39.9589H49.731V0.474121H54.444Z" fill="white"/>
<path d="M61.4324 5.21394V16.7544H66.1455V21.5766L61.3918 21.5354V39.9589H56.6787V0.474121H67.2222V5.25515L61.4324 5.21394Z" fill="white"/>
<path d="M74.0683 0.474121V39.9589H69.3552V0.474121H74.0683Z" fill="white"/>
<path d="M81.6053 5.25515V17.1253H86.8465V21.9064L81.5646 21.8652V35.1778H87.9435V40.0001L76.8516 39.9589V0.474121H87.9435V5.25515H81.6053Z" fill="white"/>
<path fill-rule="evenodd" clip-rule="evenodd" d="M103.2 8.7585V31.6539C103.2 37.9393 101.29 39.9589 94.7489 39.9589H89.8733V0.474121H94.7489C101.29 0.474121 103.2 2.47308 103.2 8.7585ZM98.4868 10.2835C98.4868 5.6879 98.0602 5.25515 94.7489 5.25515H94.5864V20.1959L94.566 35.1778H94.7489C98.0602 35.1778 98.4868 34.7245 98.4868 30.1289V10.2835Z" fill="white"/>
</svg>
