<svg width="100" height="100" viewBox="0 0 100 100" fill="none" xmlns="http://www.w3.org/2000/svg">
<path fill-rule="evenodd" clip-rule="evenodd" d="M50 32.5006C54.1742 32.5006 57.9217 34.3274 60.4867 37.2251C62.0006 36.4219 63.69 36.0006 65.4076 36.0006C67.2508 36.0006 69.0614 36.4857 70.6576 37.4073C72.2538 38.3289 73.5793 39.6544 74.5009 41.2506C75.4225 42.8468 75.9076 44.6574 75.9076 46.5006C75.9076 48.3437 75.4225 50.1544 74.5009 51.7506C74.2904 52.1152 74.0587 52.4658 73.8076 52.8006C75.3153 53.9313 76.5839 55.3585 77.532 57.0006L71.4685 60.5013C70.8529 59.4349 69.9667 58.5499 68.8996 57.9355C67.8325 57.3211 66.6221 56.9991 65.3908 57.0021C64.3936 57.0045 63.4113 57.2199 62.5085 57.6307C64.809 59.3393 66.7479 61.5072 68.1895 63.9988L62.1263 67.4994C59.7055 63.3154 55.1815 60.5006 50 60.5006C44.8185 60.5006 40.2944 63.3154 37.8736 67.4994L31.8104 63.9988C33.2521 61.5072 35.191 59.3393 37.4914 57.6307C36.5887 57.2199 35.6064 57.0045 34.6092 57.0021C33.3779 56.9991 32.1675 57.3211 31.1004 57.9355C30.0333 58.5499 29.1471 59.4349 28.5315 60.5013L22.468 57.0006C23.4161 55.3585 24.6847 53.9313 26.1924 52.8006C25.9413 52.4658 25.7096 52.1152 25.4991 51.7506C24.5775 50.1544 24.0924 48.3437 24.0924 46.5006C24.0924 44.6574 24.5775 42.8468 25.4991 41.2506C26.4207 39.6544 27.7462 38.3289 29.3424 37.4073C30.9386 36.4857 32.7492 36.0006 34.5924 36.0006C36.31 36.0006 37.9994 36.4219 39.5133 37.2251C42.0783 34.3274 45.8258 32.5006 50 32.5006ZM65.0569 50.005C64.568 49.956 64.0935 49.8052 63.6645 49.5609C63.8841 48.5759 64 47.5518 64 46.5006C64 45.4494 63.8842 44.4253 63.6645 43.4403C64.1956 43.1378 64.7963 42.9787 65.4076 42.9787C66.0259 42.9787 66.6332 43.1414 67.1686 43.4505C67.704 43.7596 68.1486 44.2042 68.4577 44.7396C68.7668 45.275 68.9295 45.8824 68.9295 46.5006C68.9295 47.1188 68.7668 47.7261 68.4577 48.2615C68.1486 48.7969 67.704 49.2415 67.1686 49.5506C66.7349 49.801 66.254 49.9554 65.7584 50.005C65.6304 50.0018 65.5022 50.0003 65.374 50.0006C65.2682 50.0009 65.1625 50.0023 65.0569 50.005ZM36.3355 43.4403C35.8045 43.1378 35.2037 42.9787 34.5924 42.9787C33.9741 42.9787 33.3668 43.1414 32.8314 43.4505C32.296 43.7596 31.8514 44.2042 31.5423 44.7396C31.2332 45.275 31.0705 45.8824 31.0705 46.5006C31.0705 47.1188 31.2332 47.7261 31.5423 48.2615C31.8514 48.7969 32.296 49.2415 32.8314 49.5506C33.2651 49.801 33.746 49.9554 34.2416 50.005C34.3696 50.0018 34.4978 50.0003 34.626 50.0006C34.7318 50.0009 34.8375 50.0023 34.9431 50.005C35.432 49.956 35.9065 49.8052 36.3355 49.5609C36.1159 48.5759 36 47.5518 36 46.5006C36 45.4494 36.1159 44.4253 36.3355 43.4403ZM57 46.5006C57 50.3666 53.866 53.5006 50 53.5006C46.134 53.5006 43 50.3666 43 46.5006C43 42.6346 46.134 39.5006 50 39.5006C53.866 39.5006 57 42.6346 57 46.5006Z" fill="#87E97C"/>
<circle cx="50" cy="50" r="48.5" stroke="#87E97C" stroke-width="3"/>
</svg>
