<svg width="14" height="14" viewBox="0 0 14 14" fill="none" xmlns="http://www.w3.org/2000/svg">
<path fill-rule="evenodd" clip-rule="evenodd" d="M3.5 0C4.05228 0 4.5 0.447715 4.5 1V2H9.50009V1C9.50009 0.447715 9.94781 0 10.5001 0C11.0524 0 11.5001 0.447715 11.5001 1V2H12.5C13.3284 2 14 2.67157 14 3.5V4.5H0V3.5C0 2.67157 0.671573 2 1.5 2H2.5V1C2.5 0.447715 2.94772 0 3.5 0Z" fill="#2859C5"/>
<path d="M0 4.5H14V12.5C14 13.3284 13.3284 14 12.5 14H1.5C0.671573 14 0 13.3284 0 12.5V4.5Z" fill="#8FBFFA"/>
<path fill-rule="evenodd" clip-rule="evenodd" d="M7.42872 10.9433C7.42872 11.1961 7.58099 11.424 7.81454 11.5207C8.04809 11.6175 8.31691 11.564 8.49566 11.3853L10.4048 9.47611C10.6489 9.23203 10.6489 8.8363 10.4048 8.59222L8.49566 6.68308C8.31691 6.50433 8.04809 6.45086 7.81454 6.54759C7.58099 6.64433 7.42872 6.87223 7.42872 7.12502V8.28413H4.03516C3.62095 8.28413 3.28516 8.61992 3.28516 9.03413C3.28516 9.44834 3.62095 9.78413 4.03516 9.78413H7.42872V10.9433Z" fill="#2859C5"/>
</svg>
