<svg width="14" height="14" viewBox="0 0 14 14" fill="none" xmlns="http://www.w3.org/2000/svg">
<path fill-rule="evenodd" clip-rule="evenodd" d="M1.57322 1.57322C1.62011 1.52634 1.6837 1.5 1.75 1.5H3.25C3.66421 1.5 4 1.16421 4 0.75C4 0.335786 3.66421 0 3.25 0H1.75C1.28587 0 0.840752 0.184375 0.512563 0.512563C0.184375 0.840752 0 1.28587 0 1.75V3.25C0 3.66421 0.335786 4 0.75 4C1.16421 4 1.5 3.66421 1.5 3.25V1.75C1.5 1.6837 1.52634 1.62011 1.57322 1.57322ZM14 10.75C14 10.3358 13.6642 10 13.25 10C12.8358 10 12.5 10.3358 12.5 10.75V12.25C12.5 12.3163 12.4737 12.3799 12.4268 12.4268C12.3799 12.4737 12.3163 12.5 12.25 12.5H10.75C10.3358 12.5 10 12.8358 10 13.25C10 13.6642 10.3358 14 10.75 14H12.25C12.7141 14 13.1592 13.8156 13.4874 13.4874C13.8156 13.1592 14 12.7141 14 12.25V10.75ZM0.75 10C1.16421 10 1.5 10.3358 1.5 10.75V12.25C1.5 12.3163 1.52634 12.3799 1.57322 12.4268C1.62011 12.4737 1.6837 12.5 1.75 12.5H3.25C3.66421 12.5 4 12.8358 4 13.25C4 13.6642 3.66421 14 3.25 14H1.75C1.28587 14 0.840752 13.8156 0.512563 13.4874C0.184375 13.1592 0 12.7141 0 12.25V10.75C0 10.3358 0.335786 10 0.75 10ZM10.75 0C10.3358 0 10 0.335786 10 0.75C10 1.16421 10.3358 1.5 10.75 1.5H12.25C12.3163 1.5 12.3799 1.52634 12.4268 1.57322C12.4737 1.62011 12.5 1.6837 12.5 1.75V3.25C12.5 3.66421 12.8358 4 13.25 4C13.6642 4 14 3.66421 14 3.25V1.75C14 1.28587 13.8156 0.840752 13.4874 0.512563C13.1592 0.184375 12.7141 0 12.25 0H10.75Z" fill="#8FBFFA"/>
<path fill-rule="evenodd" clip-rule="evenodd" d="M9.20738 4.46056C9.20738 5.68142 8.21768 6.67112 6.99682 6.67112C5.77596 6.67112 4.78626 5.68142 4.78626 4.46056C4.78626 3.2397 5.77596 2.25 6.99682 2.25C8.21768 2.25 9.20738 3.2397 9.20738 4.46056ZM2.85397 10.6548C3.47998 8.97385 5.09939 7.77649 6.99845 7.77649C8.89752 7.77649 10.5169 8.97385 11.1429 10.6548C11.2543 10.9539 11.016 11.2502 10.6969 11.2502H3.30002C2.98091 11.2502 2.74261 10.9539 2.85397 10.6548Z" fill="#2859C5"/>
</svg>
