<svg width="14" height="14" viewBox="0 0 14 14" fill="none" xmlns="http://www.w3.org/2000/svg">
<path d="M6.5 0C2.91015 0 0 2.91015 0 6.5C0 10.0899 2.91015 13 6.5 13C10.0899 13 13 10.0899 13 6.5C13 2.91015 10.0899 0 6.5 0Z" fill="#8FBFFA"/>
<path fill-rule="evenodd" clip-rule="evenodd" d="M1.5 6.5C1.5 3.73858 3.73858 1.5 6.5 1.5C9.26142 1.5 11.5 3.73858 11.5 6.5C11.5 9.26142 9.26142 11.5 6.5 11.5C3.73858 11.5 1.5 9.26142 1.5 6.5ZM6.5 0C2.91015 0 0 2.91015 0 6.5C0 10.0899 2.91015 13 6.5 13C7.9341 13 9.25974 12.5356 10.3347 11.7489L12.2931 13.7073C12.6837 14.0978 13.3168 14.0978 13.7073 13.7073C14.0979 13.3168 14.0979 12.6836 13.7073 12.2931L11.7489 10.3347C12.5356 9.25973 13 7.9341 13 6.5C13 2.91015 10.0899 0 6.5 0Z" fill="#2859C5"/>
<path fill-rule="evenodd" clip-rule="evenodd" d="M7.26474 3.90059C7.07734 3.07894 5.90514 3.08407 5.72493 3.90732L5.71801 3.93905L5.70446 4.00069C5.5051 4.89346 4.78714 5.57855 3.88528 5.73545C3.02782 5.88462 3.02782 7.11553 3.88528 7.2647C4.79028 7.42215 5.5101 8.11148 5.70653 9.00884L5.72493 9.09283C5.90514 9.91608 7.07733 9.92121 7.26474 9.09956L7.28708 9.00167C7.491 8.10755 8.21181 7.42327 9.11533 7.26609C9.97434 7.11664 9.97434 5.8835 9.11533 5.73406C8.21661 5.57771 7.49865 4.89984 7.29036 4.0127C7.28455 3.98795 7.27918 3.96427 7.27336 3.93853L7.26474 3.90059Z" fill="#2859C5"/>
</svg>
