<svg width="14" height="14" viewBox="0 0 14 14" fill="none" xmlns="http://www.w3.org/2000/svg">
<path d="M7 14C10.866 14 14 10.866 14 7C14 3.13401 10.866 0 7 0C3.13401 0 0 3.13401 0 7C0 10.866 3.13401 14 7 14Z" fill="#8FBFFA"/>
<path fill-rule="evenodd" clip-rule="evenodd" d="M7.00061 2.5C7.41482 2.5 7.75061 2.83579 7.75061 3.25V3.77772C8.20785 3.85458 8.6127 4.0867 8.90786 4.41648C9.07957 4.60833 9.21522 4.83419 9.3033 5.08339C9.44133 5.47393 9.23664 5.90242 8.8461 6.04046C8.45557 6.17849 8.02707 5.9738 7.88904 5.58326C7.86737 5.52195 7.83366 5.46545 7.79016 5.41685C7.69753 5.31336 7.56531 5.25 7.4173 5.25H6.44977C6.24775 5.25 6.08398 5.41377 6.08398 5.61578C6.08398 5.78768 6.20368 5.93638 6.3716 5.97312L7.8447 6.29536C8.76312 6.49626 9.4173 7.30991 9.4173 8.24952C9.4173 9.24023 8.69677 10.0635 7.75061 10.2223V10.75C7.75061 11.1642 7.41482 11.5 7.00061 11.5C6.5864 11.5 6.25061 11.1642 6.25061 10.75V10.2223C5.52712 10.101 4.93645 9.59128 4.69798 8.91657C4.55995 8.52604 4.76464 8.09755 5.15518 7.95951C5.54571 7.82148 5.97421 8.02617 6.11224 8.41671C6.18124 8.61191 6.36745 8.74997 6.58398 8.74997H7.4173C7.69308 8.74997 7.9173 8.52601 7.9173 8.24952C7.9173 8.01429 7.75343 7.81086 7.52415 7.76071L6.05106 7.43847C5.1945 7.2511 4.58398 6.49259 4.58398 5.61578C4.58398 4.65262 5.31381 3.85991 6.25061 3.7605V3.25C6.25061 2.83579 6.5864 2.5 7.00061 2.5Z" fill="#2859C5"/>
</svg>
