<svg width="14" height="14" viewBox="0 0 14 14" fill="none" xmlns="http://www.w3.org/2000/svg">
<path d="M8.99414 7.5058L5.99414 8.0458L6.49414 5.0058L11.2241 0.295798C11.3171 0.20207 11.4277 0.127676 11.5496 0.0769069C11.6714 0.0261382 11.8021 0 11.9341 0C12.0662 0 12.1969 0.0261382 12.3187 0.0769069C12.4406 0.127676 12.5512 0.20207 12.6441 0.295798L13.7041 1.3558C13.7979 1.44876 13.8723 1.55936 13.923 1.68122C13.9738 1.80308 13.9999 1.93379 13.9999 2.0658C13.9999 2.19781 13.9738 2.32852 13.923 2.45037C13.8723 2.57223 13.7979 2.68284 13.7041 2.7758L8.99414 7.5058Z" fill="#2859C5"/>
<path fill-rule="evenodd" clip-rule="evenodd" d="M9.2156 8.73603C9.46746 8.69069 9.69934 8.56915 9.87991 8.38781L14 4.25021V11.5C14 11.8978 13.842 12.2794 13.5607 12.5607C13.2794 12.842 12.8978 13 12.5 13H4.56156L0.621278 13.9851C0.444236 14.0293 0.257142 13.9736 0.133149 13.8397C0.00915601 13.7058 -0.0320399 13.515 0.0256687 13.3419L1.00001 10.4189V1.5C1.00001 1.10218 1.15805 0.720644 1.43935 0.43934C1.72065 0.158035 2.10219 0 2.50001 0H9.74969L5.61215 4.12004C5.42625 4.30516 5.30331 4.54407 5.26073 4.80293L4.76073 7.84293C4.69483 8.24362 4.82767 8.65136 5.11696 8.93632C5.40626 9.22128 5.81595 9.34796 6.2156 9.27603L9.2156 8.73603Z" fill="#8FBFFA"/>
</svg>
