<svg width="14" height="10" viewBox="0 0 14 10" fill="none" xmlns="http://www.w3.org/2000/svg">
<path d="M7 0C5.4556 0 4.0559 0.68177 2.9327 1.49099C1.80544 2.30314 0.913028 3.27496 0.37279 3.92789L0.36828 3.93342C0.127025 4.23362 0 4.61404 0 5.00006C0 5.38607 0.127025 5.7665 0.36828 6.0667L0.37279 6.07223C0.913028 6.72515 1.80544 7.69698 2.9327 8.5091C4.0559 9.3183 5.4556 10.0001 7 10.0001C8.54441 10.0001 9.9441 9.3183 11.0673 8.5091C12.1946 7.69698 13.087 6.72515 13.6272 6.07223L13.6317 6.0667C13.873 5.7665 14 5.38607 14 5.00006C14 4.61404 13.873 4.23362 13.6317 3.93342L13.6272 3.92789C13.087 3.27496 12.1946 2.30314 11.0673 1.49099C9.9441 0.68177 8.54441 0 7 0Z" fill="#8FBFFA"/>
<path d="M7 7.25C8.24264 7.25 9.25 6.24264 9.25 5C9.25 3.75736 8.24264 2.75 7 2.75C5.75736 2.75 4.75 3.75736 4.75 5C4.75 6.24264 5.75736 7.25 7 7.25Z" fill="#2859C5"/>
</svg>
