<svg xmlns="http://www.w3.org/2000/svg" width="35px" height="35px" viewBox="0 0 24 25"><path fill="currentColor" d="M14.935 9.945a.57.57 0 0 1-.43-.194l-.572-.646a.45.45 0 0 0-.672 0l-.49.555a.85.85 0 0 1-.634.285H4.42A8 8 0 0 0 4 11.92h7.285a.47.47 0 0 0 .34-.145l.678-.707a.45.45 0 0 1 .324-.139h.028c.128 0 .251.055.336.152l.572.646a.57.57 0 0 0 .43.193h5.946a8 8 0 0 0-.42-1.975zM8.41 16.07c.128 0 .25-.051.338-.144l.68-.707a.45.45 0 0 1 .323-.139h.028c.128 0 .251.055.336.152l.572.645c.11.123.265.194.43.194h8.058a8 8 0 0 0 .655-1.994h-7.735a.57.57 0 0 1-.43-.194l-.571-.645a.45.45 0 0 0-.673 0l-.49.554a.85.85 0 0 1-.634.286H4.11c.132.7.353 1.37.655 1.994zm5.716-8.283a.47.47 0 0 0 .34-.145l.678-.707a.45.45 0 0 1 .324-.139h.028c.128 0 .251.055.336.152l.572.646a.57.57 0 0 0 .43.193h1.532a7.99 7.99 0 0 0-6.396-3.195a7.99 7.99 0 0 0-6.395 3.195zM8.952 18.048a.57.57 0 0 1-.43-.194l-.57-.645a.45.45 0 0 0-.673 0l-.491.554a.85.85 0 0 1-.633.286h-.033a7.98 7.98 0 0 0 5.848 2.543a7.98 7.98 0 0 0 5.847-2.543z"/></svg>