<svg width="24" height="24" viewBox="0 0 24 24" fill="none" xmlns="http://www.w3.org/2000/svg">
<path fill-rule="evenodd" clip-rule="evenodd" d="M6 0C6.94677 0 7.71429 0.767511 7.71429 1.71429V3.42857H16.2859V1.71429C16.2859 0.767511 17.0534 0 18.0002 0C18.947 0 19.7145 0.767511 19.7145 1.71429V3.42857H21.4286C22.8487 3.42857 24 4.57983 24 6V7.71429H0V6C0 4.57983 1.15127 3.42857 2.57143 3.42857H4.28571V1.71429C4.28571 0.767511 5.05323 0 6 0Z" fill="#2859C5"/>
<path d="M0 7.71436H24V21.4286C24 22.8488 22.8487 24.0001 21.4286 24.0001H2.57143C1.15127 24.0001 0 22.8488 0 21.4286V7.71436Z" fill="#8FBFFA"/>
<path fill-rule="evenodd" clip-rule="evenodd" d="M13.2859 11.5714C13.2859 10.8613 12.7102 10.2856 12.0001 10.2856C11.2901 10.2856 10.7144 10.8613 10.7144 11.5714V14.5714H7.71443C7.00435 14.5714 6.42871 15.147 6.42871 15.8571C6.42871 16.5671 7.00435 17.1428 7.71443 17.1428H10.7144V20.1428C10.7144 20.8528 11.2901 21.4285 12.0001 21.4285C12.7102 21.4285 13.2859 20.8528 13.2859 20.1428V17.1428H16.2859C16.9959 17.1428 17.5716 16.5671 17.5716 15.8571C17.5716 15.147 16.9959 14.5714 16.2859 14.5714H13.2859V11.5714Z" fill="#2859C5"/>
</svg>
