<svg width="64" height="64" viewBox="0 0 64 64" fill="none" xmlns="http://www.w3.org/2000/svg">
    <path fill-rule="evenodd" clip-rule="evenodd"
        d="M22.465 0C20.6464 0 18.9022 0.722446 17.6162 2.00841L2.00841 17.6162C0.722446 18.9022 0 20.6464 0 22.465V41.535C0 43.3536 0.722446 45.0978 2.00841 46.3835L17.6162 61.9918C18.9022 63.2777 20.6464 64 22.465 64H41.535C43.3536 64 45.0978 63.2777 46.3835 61.9918L61.9918 46.3835C63.2777 45.0978 64 43.3536 64 41.535V22.465C64 20.6464 63.2777 18.9022 61.9918 17.6162L46.3835 2.00841C45.0978 0.722446 43.3536 0 41.535 0H22.465Z"
        fill="#FFED80" />
    <path fill-rule="evenodd" clip-rule="evenodd"
        d="M35.4277 17.7142C35.4277 15.8207 33.8927 14.2856 31.9992 14.2856C30.1056 14.2856 28.5706 15.8207 28.5706 17.7142V32.5714C28.5706 34.4649 30.1056 35.9999 31.9992 35.9999C33.8927 35.9999 35.4277 34.4649 35.4277 32.5714V17.7142ZM31.9992 49.7142C34.5239 49.7142 36.5706 47.6676 36.5706 45.1428C36.5706 42.6181 34.5239 40.5714 31.9992 40.5714C29.4745 40.5714 27.4277 42.6181 27.4277 45.1428C27.4277 47.6676 29.4745 49.7142 31.9992 49.7142Z"
        fill="#806E00" />
</svg>
    