<svg width="100" height="100" viewBox="0 0 100 100" fill="none" xmlns="http://www.w3.org/2000/svg">
<path fill-rule="evenodd" clip-rule="evenodd" d="M46.5 74.5V71H37.75V64H46.5L46.5 53.5C39.7345 53.5 34.25 48.0155 34.25 41.25C34.25 34.4845 39.7345 29 46.5 29L46.5 25.5H53.5V29H62.25V36H53.5L53.5 46.5C60.2655 46.5 65.75 51.9845 65.75 58.75C65.75 65.5155 60.2655 71 53.5 71L53.5 74.5H46.5ZM53.5 64C56.3995 64 58.75 61.6495 58.75 58.75C58.75 55.8505 56.3995 53.5 53.5 53.5V64ZM41.25 41.25C41.25 38.3505 43.6005 36 46.5 36V46.5C43.6005 46.5 41.25 44.1495 41.25 41.25Z" fill="#87E97C"/>
<circle cx="50" cy="50" r="48.5" stroke="#87E97C" stroke-width="3"/>
</svg>
