<svg width="16" height="16" viewBox="0 0 16 16" fill="none" xmlns="http://www.w3.org/2000/svg">
<path fill-rule="evenodd" clip-rule="evenodd" d="M8.00045 0.00683594C7.68494 0.00683594 7.37555 0.0939078 7.10635 0.258463C6.83716 0.423018 6.61859 0.658672 6.47474 0.939475L6.4722 0.944473L0.187291 13.5143C0.0561029 13.775 -0.00680753 14.0659 0.00540853 14.3575C0.0176389 14.6495 0.104303 14.9335 0.257169 15.1825C0.410037 15.4316 0.624032 15.6374 0.878832 15.7805C1.13363 15.9236 1.42078 15.9991 1.713 16H1.71474H14.2861H14.2878C14.5801 15.9991 14.8673 15.9236 15.122 15.7805C15.3769 15.6374 15.5908 15.4316 15.7437 15.1825C15.8966 14.9335 15.9833 14.6495 15.9955 14.3575C16.0077 14.0659 15.9452 13.7758 15.814 13.5151L9.52869 0.944473L9.52617 0.939475C9.3823 0.658672 9.16374 0.423018 8.89454 0.258463C8.62534 0.0939078 8.31596 0.00683594 8.00045 0.00683594Z" fill="#FFE6E6"/>
<path fill-rule="evenodd" clip-rule="evenodd" d="M8.85742 5.57199C8.85742 5.0986 8.47366 4.71484 8.00028 4.71484C7.5269 4.71484 7.14314 5.0986 7.14314 5.57199V9.28627C7.14314 9.75965 7.5269 10.1434 8.00028 10.1434C8.47366 10.1434 8.85742 9.75965 8.85742 9.28627V5.57199ZM8.00028 13.572C8.63146 13.572 9.14314 13.0603 9.14314 12.4291C9.14314 11.7979 8.63146 11.2863 8.00028 11.2863C7.3691 11.2863 6.85742 11.7979 6.85742 12.4291C6.85742 13.0603 7.3691 13.572 8.00028 13.572Z" fill="#E63535"/>
</svg>
