<svg width="64" height="64" viewBox="0 0 64 64" fill="none" xmlns="http://www.w3.org/2000/svg">
<path fill-rule="evenodd" clip-rule="evenodd" d="M32 0C49.6731 0 64 14.3269 64 32C64 49.6731 49.6731 64 32 64C14.3269 64 0 49.6731 0 32C0 14.3269 14.3269 0 32 0Z" fill="#8FBFFA"/>
<path fill-rule="evenodd" clip-rule="evenodd" d="M40.0037 62.9912C37.4456 63.65 34.7637 64.0001 32 64.0001C20.5142 64.0001 10.4418 57.9489 4.79688 48.8605C8.64643 43.4817 14.0177 39.7144 20.8954 39.7144C32.7205 39.7144 38.9517 49.4593 39.8448 60.1556C39.9214 61.0726 39.9829 62.0372 40.0037 62.9912ZM59.7678 47.9156C56.331 53.8991 51.0154 58.6662 44.6264 61.4127C44.7596 60.8422 44.8064 60.2452 44.7557 59.6385C44.2649 53.7601 42.2875 47.7784 38.4231 43.146C38.2159 42.8977 38.0039 42.6539 37.7869 42.4149C40.1789 41.2046 42.8252 40.5716 45.5129 40.5716C48.4485 40.5716 51.3345 41.3267 53.894 42.7644C55.0012 43.3863 56.0307 44.1268 56.9665 44.9698L59.7678 47.9156ZM31.8826 25.0889C31.8826 19.4204 27.2874 14.8252 21.619 14.8252C15.9505 14.8252 11.3553 19.4204 11.3553 25.0889C11.3553 30.7574 15.9505 35.3526 21.619 35.3526C27.2874 35.3526 31.8826 30.7574 31.8826 25.0889ZM45.4308 19.5652C50.1272 19.5652 53.9338 23.3722 53.9338 28.0684C53.9338 32.7645 50.1272 36.5715 45.4308 36.5715C40.7347 36.5715 36.9276 32.7645 36.9276 28.0684C36.9276 23.3722 40.7347 19.5652 45.4308 19.5652Z" fill="#2859C5"/>
</svg>
