<svg width="14" height="13" viewBox="0 0 14 13" fill="none" xmlns="http://www.w3.org/2000/svg">
<path d="M5 6.5C6.65685 6.5 8 5.15685 8 3.5C8 1.84315 6.65685 0.5 5 0.5C3.34315 0.5 2 1.84315 2 3.5C2 5.15685 3.34315 6.5 5 6.5Z" fill="#8FBFFA"/>
<path d="M0 12.5C0 9.7386 2.23858 7.5 5 7.5C7.76142 7.5 10 9.7386 10 12.5C10 12.7761 9.77614 13 9.5 13H0.5C0.223858 13 0 12.7761 0 12.5Z" fill="#8FBFFA"/>
<path fill-rule="evenodd" clip-rule="evenodd" d="M11.1771 13H13.4996C13.7757 13 13.9996 12.7761 13.9996 12.5C13.9996 9.73857 11.761 7.49997 8.99959 7.49997C8.91854 7.49997 8.83794 7.5019 8.75783 7.50571C10.2712 8.64634 11.2496 10.4589 11.2496 12.5C11.2496 12.6737 11.2243 12.8416 11.1771 13ZM8.13184 6.37258C8.40654 6.45545 8.69786 6.5 8.99959 6.5C10.6565 6.5 11.9996 5.15685 11.9996 3.5C11.9996 1.84315 10.6565 0.5 8.99959 0.5C8.69786 0.5 8.40654 0.54454 8.13184 0.62741C8.82593 1.38385 9.24959 2.39245 9.24959 3.5C9.24959 4.60755 8.82593 5.61615 8.13184 6.37258Z" fill="#2859C5"/>
</svg>
