<svg width="16" height="16" viewBox="0 0 16 16" fill="none" xmlns="http://www.w3.org/2000/svg">
<g clip-path="url(#clip0_128_10407)">
<path fill-rule="evenodd" clip-rule="evenodd" d="M6.55822 0.129728C7.0265 0.0444369 7.50843 0 8 0C8.49157 0 8.9735 0.0444369 9.44178 0.129728C9.90751 0.214552 10.2163 0.660861 10.1315 1.12659C10.0466 1.59231 9.60033 1.9011 9.13461 1.81626C8.7672 1.74935 8.38807 1.71429 8 1.71429C7.61193 1.71429 7.2328 1.74935 6.86539 1.81626C6.39967 1.9011 5.95336 1.59231 5.86854 1.12659C5.78371 0.660861 6.09249 0.214552 6.55822 0.129728ZM4.64709 1.63343C4.91634 2.02279 4.81898 2.5567 4.42962 2.82594C3.80322 3.25913 3.25913 3.80322 2.82594 4.42962C2.5567 4.81898 2.02279 4.91634 1.63343 4.64709C1.24408 4.37783 1.14672 3.84392 1.41597 3.45456C1.96672 2.65816 2.65816 1.96672 3.45457 1.41597C3.84392 1.14672 4.37783 1.24408 4.64709 1.63343ZM11.3529 1.63343C11.6222 1.24408 12.1561 1.14672 12.5455 1.41597C13.3418 1.96672 14.0333 2.65816 14.584 3.45457C14.8533 3.84392 14.7559 4.37783 14.3665 4.64709C13.9773 4.91634 13.4433 4.81898 13.1741 4.42962C12.7409 3.80322 12.1968 3.25913 11.5704 2.82594C11.181 2.5567 11.0837 2.02279 11.3529 1.63343ZM1.12659 5.86854C1.59231 5.95336 1.9011 6.39967 1.81626 6.86539C1.74935 7.2328 1.71429 7.61193 1.71429 8C1.71429 8.38807 1.74935 8.7672 1.81626 9.13461C1.9011 9.60033 1.59231 10.0466 1.12659 10.1315C0.660861 10.2163 0.214552 9.90751 0.129728 9.44178C0.0444369 8.9735 0 8.49157 0 8C0 7.50843 0.0444369 7.0265 0.129728 6.55822C0.214552 6.09249 0.660861 5.7837 1.12659 5.86854ZM14.8734 5.86854C15.3391 5.78371 15.7855 6.09249 15.8703 6.55822C15.9555 7.0265 16 7.50843 16 8C16 8.49157 15.9555 8.9735 15.8703 9.44178C15.7855 9.90751 15.3391 10.2163 14.8734 10.1315C14.4077 10.0466 14.0989 9.60033 14.1838 9.13461C14.2506 8.7672 14.2857 8.38807 14.2857 8C14.2857 7.61193 14.2506 7.2328 14.1838 6.86539C14.0989 6.39967 14.4077 5.95336 14.8734 5.86854ZM1.63343 11.3529C2.02279 11.0837 2.5567 11.181 2.82594 11.5704C3.25913 12.1968 3.80322 12.7409 4.42962 13.1741C4.81898 13.4433 4.91634 13.9773 4.64709 14.3665C4.37783 14.7559 3.84392 14.8533 3.45456 14.584C2.65816 14.0333 1.96672 13.3418 1.41597 12.5455C1.14672 12.1561 1.24408 11.6222 1.63343 11.3529ZM14.3665 11.3529C14.7559 11.6222 14.8533 12.1561 14.584 12.5455C14.0333 13.3418 13.3418 14.0333 12.5455 14.584C12.1561 14.8533 11.6222 14.7559 11.3529 14.3665C11.0837 13.9773 11.181 13.4433 11.5704 13.1741C12.1968 12.7409 12.7409 12.1968 13.1741 11.5704C13.4433 11.181 13.9773 11.0837 14.3665 11.3529ZM5.86854 14.8734C5.95336 14.4077 6.39967 14.0989 6.86539 14.1838C7.2328 14.2506 7.61193 14.2857 8 14.2857C8.38807 14.2857 8.7672 14.2506 9.13461 14.1838C9.60033 14.0989 10.0466 14.4077 10.1315 14.8734C10.2163 15.3391 9.90751 15.7855 9.44178 15.8703C8.9735 15.9555 8.49157 16 8 16C7.50843 16 7.0265 15.9555 6.55822 15.8703C6.09249 15.7855 5.7837 15.3391 5.86854 14.8734Z" fill="#8FBFFA"/>
</g>
<defs>
<clipPath id="clip0_128_10407">
<rect width="16" height="16" fill="white"/>
</clipPath>
</defs>
</svg>
