<svg width="14" height="14" viewBox="0 0 14 14" fill="none" xmlns="http://www.w3.org/2000/svg">
<g clip-path="url(#clip0_388_3616)">
<path fill-rule="evenodd" clip-rule="evenodd" d="M2.00754 9.50586C1.80752 9.50586 1.62675 9.62506 1.54796 9.8089L0.0501949 13.3037C-0.0160117 13.4582 -0.000175059 13.6356 0.0923468 13.7759C0.184869 13.9162 0.341696 14.0006 0.509767 14.0006H13.4904C13.6585 14.0006 13.8153 13.9162 13.9078 13.7759C14.0004 13.6356 14.0162 13.4582 13.95 13.3037L12.4522 9.8089C12.3734 9.62506 12.1927 9.50586 11.9926 9.50586H11.0713H2.92887H2.00754Z" fill="#2859C5"/>
<path fill-rule="evenodd" clip-rule="evenodd" d="M7.00043 0C4.3789 0 2.19434 2.18456 2.19434 4.80609C2.19434 5.66168 2.4884 6.50547 2.89945 7.26997C3.3121 8.03744 3.85828 8.75403 4.40089 9.3641C4.94456 9.97537 5.4939 10.4901 5.92189 10.8537C6.13567 11.0353 6.3228 11.1822 6.46706 11.2863C6.53831 11.3377 6.60505 11.383 6.66267 11.4175C6.69072 11.4344 6.72488 11.4537 6.76122 11.4705C6.77931 11.4789 6.80533 11.4901 6.83638 11.5C6.8608 11.5078 6.92184 11.526 7.00043 11.526C7.0797 11.526 7.14122 11.5074 7.16572 11.4996C7.19693 11.4895 7.22305 11.4782 7.24118 11.4697C7.27758 11.4527 7.31178 11.4332 7.33981 11.4162C7.39741 11.3814 7.46413 11.3357 7.53533 11.284C7.67951 11.1791 7.86654 11.0311 8.08021 10.8484C8.508 10.4826 9.05708 9.96521 9.60049 9.3523C10.1428 8.74062 10.6887 8.02339 11.1012 7.25771C11.5119 6.49531 11.8065 5.65497 11.8065 4.80609C11.8065 2.18456 9.62195 0 7.00043 0Z" fill="#8FBFFA"/>
<path d="M6.99981 6.24182C7.79254 6.24182 8.43517 5.59919 8.43517 4.80646C8.43517 4.01373 7.79254 3.37109 6.99981 3.37109C6.20708 3.37109 5.56445 4.01373 5.56445 4.80646C5.56445 5.59919 6.20708 6.24182 6.99981 6.24182Z" fill="#2859C5"/>
</g>
<defs>
<clipPath id="clip0_388_3616">
<rect width="14" height="14" fill="white"/>
</clipPath>
</defs>
</svg>
