<svg width="12" height="14" viewBox="0 0 12 14" fill="none" xmlns="http://www.w3.org/2000/svg">
<path fill-rule="evenodd" clip-rule="evenodd" d="M6 2C4.89543 2 4 2.89543 4 4V5.5C4 6.05228 3.55228 6.5 3 6.5C2.44772 6.5 2 6.05228 2 5.5V4C2 1.79086 3.79086 0 6 0C8.20914 0 10 1.79086 10 4V5.5C10 6.05228 9.5523 6.5 9 6.5C8.44772 6.5 8 6.05228 8 5.5V4C8 2.89543 7.10457 2 6 2Z" fill="#2859C5"/>
<path d="M0.5 6.5C0.5 5.67157 1.17157 5 2 5H9.99997C10.8285 5 11.5 5.67157 11.5 6.5V12.5C11.5 13.3284 10.8285 14 9.99997 14H2C1.17157 14 0.5 13.3284 0.5 12.5V6.5Z" fill="#8FBFFA"/>
<path d="M6 10.75C6.69036 10.75 7.25 10.1904 7.25 9.5C7.25 8.80964 6.69036 8.25 6 8.25C5.30964 8.25 4.75 8.80964 4.75 9.5C4.75 10.1904 5.30964 10.75 6 10.75Z" fill="#2859C5"/>
</svg>
