<svg width="37" height="24" viewBox="0 0 37 24" fill="none" xmlns="http://www.w3.org/2000/svg">
<g id="mc_symbol 1" clip-path="url(#clip0_3656_6066)">
<path id="Vector" d="M22.9318 4.18164H13.3594V19.8162H22.9318V4.18164Z" fill="#FF5F00"/>
<path id="Vector_2" d="M14.3452 11.9997C14.344 10.4942 14.6853 9.0082 15.3432 7.6541C16.0011 6.30001 16.9584 5.1133 18.1426 4.1838C16.6759 3.03109 14.9144 2.31428 13.0595 2.11531C11.2047 1.91634 9.33124 2.24323 7.65337 3.05862C5.9755 3.87401 4.56088 5.14501 3.57118 6.72634C2.58148 8.30768 2.05664 10.1356 2.05664 12.0011C2.05664 13.8666 2.58148 15.6944 3.57118 17.2758C4.56088 18.8571 5.9755 20.1281 7.65337 20.9435C9.33124 21.7589 11.2047 22.0858 13.0595 21.8868C14.9144 21.6878 16.6759 20.971 18.1426 19.8183C16.958 18.8885 16.0005 17.7014 15.3426 16.3468C14.6846 14.9922 14.3436 13.5056 14.3452 11.9997Z" fill="#EB001B"/>
<path id="Vector_3" d="M33.2785 18.162V17.8417H33.4165V17.7754H33.0879V17.8417H33.2177V18.162H33.2785ZM33.9164 18.162V17.7754H33.817L33.701 18.0516L33.585 17.7754H33.4856V18.162H33.5574V17.8693L33.6651 18.1206H33.7397L33.8474 17.8693V18.162H33.9164Z" fill="#F79E1B"/>
<path id="Vector_4" d="M34.231 11.9997C34.231 13.8653 33.706 15.6933 32.7161 17.2747C31.7263 18.8561 30.3114 20.1271 28.6333 20.9423C26.9553 21.7576 25.0816 22.0843 23.2267 21.885C21.3717 21.6858 19.6102 20.9686 18.1436 19.8156C19.3273 18.8852 20.2844 17.6982 20.9425 16.344C21.6005 14.9899 21.9425 13.5039 21.9425 11.9983C21.9425 10.4927 21.6005 9.00675 20.9425 7.65257C20.2844 6.2984 19.3273 5.11137 18.1436 4.18104C19.6102 3.02797 21.3717 2.31082 23.2267 2.11156C25.0816 1.91231 26.9553 2.23899 28.6333 3.05426C30.3114 3.86953 31.7263 5.14051 32.7161 6.72189C33.706 8.30328 34.231 10.1313 34.231 11.9969V11.9997Z" fill="#F79E1B"/>
</g>
<defs>
<clipPath id="clip0_3656_6066">
<rect width="36.2872" height="24" fill="white"/>
</clipPath>
</defs>
</svg>
