<svg width="32" height="32" viewBox="0 0 32 32" fill="none" xmlns="http://www.w3.org/2000/svg">
<path d="M0 16C0 24.8366 7.16344 32 16 32C24.8366 32 32 24.8366 32 16C32 7.16344 24.8366 0 16 0C7.16344 0 0 7.16344 0 16Z" fill="#121212"/>
<path d="M11.4269 12.6816H5.08497C5.04586 12.6816 5.00834 12.6972 4.9807 12.7248C4.95303 12.7525 4.9375 12.79 4.9375 12.8291V19.171C4.9375 19.2101 4.95303 19.2477 4.9807 19.2753C5.00834 19.303 5.04586 19.3185 5.08497 19.3185H11.4269C11.466 19.3185 11.5035 19.303 11.5312 19.2753C11.5588 19.2477 11.5744 19.2101 11.5744 19.171V12.8291C11.5744 12.79 11.5588 12.7525 11.5312 12.7248C11.5035 12.6972 11.466 12.6816 11.4269 12.6816ZM9.36206 16.9587C9.36206 16.9978 9.34654 17.0354 9.31886 17.063C9.29122 17.0907 9.25371 17.1062 9.2146 17.1062H7.29726C7.25815 17.1062 7.22064 17.0907 7.19297 17.063C7.16532 17.0354 7.1498 16.9978 7.1498 16.9587V15.0414C7.1498 15.0023 7.16532 14.9648 7.19297 14.9371C7.22064 14.9095 7.25815 14.8939 7.29726 14.8939H9.2146C9.25371 14.8939 9.29122 14.9095 9.31886 14.9371C9.34654 14.9648 9.36206 15.0023 9.36206 15.0414V16.9587Z" fill="white"/>
<path d="M24.7044 14.8936H22.7871C22.7057 14.8936 22.6396 14.9596 22.6396 15.041V16.9584C22.6396 17.0398 22.7057 17.1059 22.7871 17.1059H24.7044C24.7859 17.1059 24.8519 17.0398 24.8519 16.9584V15.041C24.8519 14.9596 24.7859 14.8936 24.7044 14.8936Z" fill="white"/>
<path d="M22.4916 12.6816H20.5743C20.4928 12.6816 20.4268 12.7477 20.4268 12.8291V14.7464C20.4268 14.8279 20.4928 14.8939 20.5743 14.8939H22.4916C22.573 14.8939 22.6391 14.8279 22.6391 14.7464V12.8291C22.6391 12.7477 22.573 12.6816 22.4916 12.6816Z" fill="white"/>
<path d="M26.9164 12.6816H24.9991C24.9176 12.6816 24.8516 12.7477 24.8516 12.8291V14.7464C24.8516 14.8279 24.9176 14.8939 24.9991 14.8939H26.9164C26.9978 14.8939 27.0639 14.8279 27.0639 14.7464V12.8291C27.0639 12.7477 26.9978 12.6816 26.9164 12.6816Z" fill="white"/>
<path d="M22.4916 17.1064H20.5743C20.4928 17.1064 20.4268 17.1725 20.4268 17.2539V19.1712C20.4268 19.2527 20.4928 19.3187 20.5743 19.3187H22.4916C22.573 19.3187 22.6391 19.2527 22.6391 19.1712V17.2539C22.6391 17.1725 22.573 17.1064 22.4916 17.1064Z" fill="white"/>
<path d="M26.9164 17.1064H24.9991C24.9176 17.1064 24.8516 17.1725 24.8516 17.2539V19.1712C24.8516 19.2527 24.9176 19.3187 24.9991 19.3187H26.9164C26.9978 19.3187 27.0639 19.2527 27.0639 19.1712V17.2539C27.0639 17.1725 26.9978 17.1064 26.9164 17.1064Z" fill="white"/>
<path d="M19.1703 12.6816H17.253C17.1715 12.6816 17.1055 12.7477 17.1055 12.8291V14.7464C17.1055 14.8279 17.1715 14.8939 17.253 14.8939H19.1703C19.2517 14.8939 19.3178 14.8279 19.3178 14.7464V12.8291C19.3178 12.7477 19.2517 12.6816 19.1703 12.6816Z" fill="white"/>
<path d="M19.1703 17.1064H17.253C17.1715 17.1064 17.1055 17.1725 17.1055 17.2539V19.1712C17.1055 19.2527 17.1715 19.3187 17.253 19.3187H19.1703C19.2517 19.3187 19.3178 19.2527 19.3178 19.1712V17.2539C19.3178 17.1725 19.2517 17.1064 19.1703 17.1064Z" fill="white"/>
<path d="M17.1053 15.0397C17.1053 15.0006 17.0897 14.9631 17.0621 14.9355C17.0344 14.9078 16.9969 14.8923 16.9578 14.8923C15.8183 14.8923 14.893 13.9686 14.893 12.8291C14.893 12.79 14.8774 12.7525 14.8498 12.7248C14.8221 12.6972 14.7846 12.6816 14.7455 12.6816H12.8282C12.789 12.6816 12.7515 12.6972 12.7239 12.7248C12.6962 12.7525 12.6807 12.79 12.6807 12.8291V19.1677C12.6807 19.2068 12.6962 19.2443 12.7239 19.272C12.7515 19.2997 12.789 19.3152 12.8282 19.3152H14.7455C14.7846 19.3152 14.8221 19.2997 14.8498 19.272C14.8774 19.2443 14.893 19.2068 14.893 19.1677C14.893 18.0283 15.8183 17.1046 16.9578 17.1046C16.9969 17.1046 17.0344 17.089 17.0621 17.0614C17.0897 17.0337 17.1053 16.9962 17.1053 16.9571V15.0397Z" fill="white"/>
</svg>
