<svg width="14" height="10" viewBox="0 0 14 10" fill="none" xmlns="http://www.w3.org/2000/svg">
<path fill-rule="evenodd" clip-rule="evenodd" d="M4 5.49998C2.89543 5.49998 2 4.60455 2 3.49998V1.00003C2 0.447729 1.55228 2.95639e-05 1 2.95639e-05C0.447715 2.95639e-05 0 0.447729 0 1.00003L0 3.49998C0 5.70912 1.79086 7.49998 4 7.49998H10V9.49998C10 9.70222 10.1218 9.88453 10.3087 9.96192C10.4955 10.0393 10.7106 9.99654 10.8536 9.85354L13.8536 6.85354C13.9473 6.75977 14 6.63259 14 6.49998C14 6.36738 13.9473 6.2402 13.8536 6.14643L10.8536 3.14643C10.7106 3.00343 10.4955 2.96065 10.3087 3.03804C10.1218 3.11544 10 3.29775 10 3.49998V5.49999L4 5.49998Z" fill="#8F90A6"/>
</svg>
