<svg width="40" height="40" viewBox="0 0 40 40" fill="none" xmlns="http://www.w3.org/2000/svg">
<circle cx="20" cy="20" r="19.5" stroke="#FF7070"/>
<path d="M11.0251 27.1516C10.9607 27.0537 10.8882 26.9767 10.8077 26.9206C10.7293 26.8631 10.6324 26.8271 10.5169 26.8127C10.4014 26.7983 10.2569 26.8061 10.0834 26.8361C9.91059 26.8625 9.70011 26.9121 9.45193 26.985C9.17988 27.0643 8.92022 27.1245 8.67295 27.1656C8.42643 27.2031 8.19524 27.2119 7.9794 27.1918C7.76213 27.1695 7.56567 27.1102 7.39001 27.0138C7.21292 26.9152 7.05996 26.7681 6.93113 26.5723C6.80373 26.3786 6.72803 26.176 6.70402 25.9642C6.68219 25.751 6.70839 25.5373 6.78263 25.3233C6.85761 25.1056 6.97768 24.8972 7.14283 24.6981C7.30656 24.4969 7.51351 24.3139 7.76368 24.1493C8.11611 23.9174 8.46253 23.783 8.80294 23.746C9.14553 23.7077 9.45764 23.7532 9.73928 23.8828C10.0231 24.0109 10.2523 24.2076 10.4269 24.473L9.61442 25.0077C9.51135 24.8511 9.38673 24.7351 9.24056 24.6598C9.09514 24.581 8.93208 24.5511 8.7514 24.5702C8.57289 24.5879 8.38139 24.6641 8.17689 24.7986C7.98328 24.926 7.84162 25.0613 7.75192 25.2045C7.66222 25.3477 7.61875 25.4901 7.62151 25.6317C7.62427 25.7733 7.66716 25.9071 7.75019 26.0333C7.80888 26.1225 7.88322 26.1905 7.97323 26.2373C8.0618 26.2818 8.16926 26.3078 8.29562 26.315C8.42054 26.3201 8.56507 26.3076 8.72921 26.2776C8.89335 26.2475 9.0789 26.2002 9.28586 26.1357C9.60062 26.0408 9.88739 25.9768 10.1462 25.9437C10.4035 25.9084 10.6368 25.9077 10.8461 25.9414C11.0553 25.9752 11.2427 26.0467 11.4082 26.1561C11.5722 26.2632 11.7172 26.4125 11.8432 26.604C11.9749 26.8041 12.0534 27.0112 12.0789 27.2251C12.1029 27.4369 12.077 27.6487 12.0014 27.8606C11.9264 28.0689 11.8046 28.2722 11.6358 28.4705C11.4678 28.6653 11.2565 28.8464 11.002 29.0139C10.7736 29.1642 10.5284 29.2819 10.2664 29.367C10.0066 29.4506 9.74564 29.4899 9.48348 29.4847C9.2199 29.4773 8.97325 29.4152 8.74355 29.2982C8.51241 29.1791 8.31382 28.9934 8.14777 28.741L8.96682 28.202C9.06846 28.3565 9.18117 28.4709 9.30495 28.5454C9.43091 28.6183 9.56465 28.6582 9.70618 28.6648C9.84628 28.6692 9.99015 28.6463 10.1378 28.5959C10.2876 28.544 10.4354 28.4702 10.5812 28.3743C10.7726 28.2483 10.9146 28.1159 11.0072 27.9771C11.1019 27.8368 11.1497 27.6962 11.1505 27.5554C11.1514 27.4145 11.1096 27.2799 11.0251 27.1516ZM12.0128 25.7816L11.9634 25.7065C11.7959 25.452 11.6776 25.1916 11.6084 24.9254C11.5378 24.657 11.5191 24.3965 11.5524 24.1439C11.5865 23.8877 11.6753 23.6485 11.8189 23.4262C11.9633 23.2002 12.1638 23.0028 12.4205 22.8339C12.6794 22.6636 12.9401 22.5575 13.2025 22.5157C13.4657 22.4704 13.7217 22.4827 13.9704 22.5529C14.2178 22.6208 14.4507 22.7403 14.6693 22.9113C14.8864 23.0802 15.0787 23.2919 15.2461 23.5464L15.2955 23.6215C15.463 23.876 15.5813 24.1364 15.6505 24.4026C15.7197 24.6688 15.7373 24.93 15.7032 25.1862C15.6678 25.4403 15.5789 25.6795 15.4367 25.904C15.2931 26.1263 15.0929 26.322 14.8362 26.4909C14.5774 26.6612 14.3163 26.7691 14.0531 26.8144C13.7907 26.8562 13.5358 26.8431 13.2885 26.7752C13.0397 26.7051 12.8068 26.5856 12.5897 26.4167C12.3726 26.2478 12.1803 26.0361 12.0128 25.7816ZM12.7498 25.1891L12.7992 25.2641C12.9037 25.4229 13.0188 25.5623 13.1445 25.6822C13.2701 25.8022 13.4029 25.8925 13.5426 25.9533C13.6824 26.0141 13.8267 26.0392 13.9755 26.0285C14.1244 26.0178 14.2739 25.9631 14.424 25.8644C14.5697 25.7684 14.6759 25.655 14.7424 25.5239C14.8111 25.3914 14.8452 25.249 14.8446 25.0966C14.8441 24.9442 14.8136 24.7865 14.7532 24.6236C14.695 24.4593 14.6136 24.2978 14.5091 24.139L14.4597 24.0639C14.3567 23.9073 14.2419 23.7708 14.1155 23.6545C13.9898 23.5346 13.8553 23.4438 13.7119 23.3823C13.5707 23.3193 13.4257 23.2932 13.2769 23.3038C13.1288 23.3109 12.9807 23.3631 12.8328 23.4604C12.6849 23.5578 12.5773 23.6738 12.51 23.8084C12.4435 23.9395 12.4112 24.0823 12.4132 24.2369C12.4151 24.3915 12.4463 24.5502 12.5067 24.7131C12.5657 24.8738 12.6468 25.0324 12.7498 25.1891ZM14.6343 19.3478L17.9325 24.36L17.1428 24.8796L13.8447 19.8674L14.6343 19.3478ZM20.4667 21.645L17.6495 17.3637L18.4392 16.8441L21.7373 21.8564L21.0227 22.3266L20.4667 21.645ZM17.5145 22.1614L17.4694 22.0929C17.2933 21.8253 17.1645 21.5609 17.0831 21.2996C17.0001 21.0362 16.9662 20.7858 16.9814 20.5482C16.9951 20.3085 17.06 20.0897 17.176 19.8918C17.2906 19.6917 17.4556 19.5208 17.671 19.379C17.8842 19.2388 18.0985 19.157 18.3138 19.1337C18.5292 19.1105 18.7443 19.1388 18.959 19.2189C19.1724 19.2967 19.3829 19.42 19.5906 19.5888C19.7969 19.7555 19.9994 19.9589 20.198 20.1992L20.3419 20.4178C20.4796 20.6888 20.5835 20.9509 20.6535 21.2041C20.7235 21.4573 20.752 21.6973 20.7391 21.924C20.7262 22.1507 20.6653 22.3591 20.5566 22.5491C20.45 22.7377 20.289 22.9029 20.0736 23.0446C19.8604 23.1849 19.6386 23.267 19.408 23.2909C19.1796 23.3133 18.9527 23.2834 18.7271 23.2012C18.5015 23.1189 18.2856 22.9898 18.0794 22.8138C17.8717 22.6356 17.6834 22.4181 17.5145 22.1614ZM18.2558 21.5754L18.3009 21.6439C18.4068 21.8049 18.5198 21.9457 18.6396 22.0663C18.7617 22.1855 18.8894 22.2776 19.0226 22.3427C19.1544 22.4056 19.2904 22.4346 19.4305 22.4297C19.5714 22.4211 19.7126 22.3704 19.854 22.2773C20.0324 22.1599 20.1534 22.0241 20.2172 21.87C20.281 21.7158 20.3018 21.5509 20.2798 21.3752C20.2585 21.196 20.2054 21.0158 20.1205 20.8347L19.7319 20.2441C19.6343 20.1243 19.5284 20.0226 19.4141 19.9388C19.3019 19.8536 19.1849 19.7919 19.0631 19.7536C18.9398 19.7131 18.8131 19.703 18.683 19.7231C18.5536 19.7397 18.4215 19.7924 18.2866 19.8811C18.143 19.9756 18.0412 20.0862 17.9812 20.213C17.9213 20.3397 17.8937 20.4779 17.8986 20.6274C17.9056 20.7755 17.9405 20.9303 18.003 21.0917C18.0656 21.2532 18.1499 21.4144 18.2558 21.5754ZM22.9379 18.5927L22.8885 18.5177C22.721 18.2632 22.6027 18.0028 22.5335 17.7366C22.4629 17.4682 22.4442 17.2077 22.4775 16.9551C22.5116 16.6989 22.6004 16.4596 22.744 16.2373C22.8884 16.0114 23.0889 15.8139 23.3456 15.645C23.6045 15.4747 23.8652 15.3686 24.1276 15.3269C24.3908 15.2815 24.6468 15.2939 24.8955 15.364C25.1429 15.4319 25.3758 15.5514 25.5943 15.7225C25.8115 15.8914 26.0038 16.1031 26.1712 16.3576L26.2206 16.4326C26.3881 16.6872 26.5064 16.9475 26.5756 17.2137C26.6448 17.48 26.6624 17.7412 26.6283 17.9974C26.5929 18.2514 26.504 18.4907 26.3618 18.7152C26.2182 18.9375 26.018 19.1331 25.7613 19.302C25.5025 19.4724 25.2414 19.5802 24.9782 19.6256C24.7158 19.6673 24.4609 19.6543 24.2136 19.5863C23.9648 19.5162 23.7319 19.3967 23.5148 19.2278C23.2977 19.059 23.1054 18.8473 22.9379 18.5927ZM23.6749 18.0002L23.7243 18.0753C23.8288 18.2341 23.9439 18.3734 24.0696 18.4934C24.1952 18.6133 24.328 18.7037 24.4677 18.7644C24.6075 18.8252 24.7518 18.8503 24.9006 18.8396C25.0495 18.829 25.199 18.7743 25.3491 18.6755C25.4948 18.5796 25.601 18.4661 25.6675 18.335C25.7362 18.2026 25.7702 18.0601 25.7697 17.9077C25.7692 17.7553 25.7387 17.5977 25.6783 17.4348C25.6201 17.2705 25.5387 17.1089 25.4342 16.9501L25.3848 16.8751C25.2817 16.7184 25.167 16.582 25.0406 16.4656C24.9149 16.3457 24.7804 16.255 24.637 16.1934C24.4958 16.1305 24.3508 16.1043 24.202 16.115C24.0538 16.122 23.9058 16.1742 23.7579 16.2716C23.61 16.3689 23.5024 16.4849 23.4351 16.6196C23.3686 16.7506 23.3363 16.8934 23.3383 17.048C23.3402 17.2026 23.3714 17.3613 23.4318 17.5242C23.4908 17.6849 23.5718 17.8436 23.6749 18.0002ZM29.5924 15.4952L27.8167 12.7965L28.6064 12.2769L30.9297 15.8077L30.1857 16.2972L29.5924 15.4952ZM29.2203 14.688L29.4803 14.5075C29.6363 14.7446 29.7541 14.9804 29.8336 15.2149C29.9116 15.4473 29.9449 15.6732 29.9335 15.8927C29.9206 16.11 29.8566 16.3158 29.7413 16.5101C29.6245 16.7023 29.4476 16.8764 29.2105 17.0324C29.0386 17.1455 28.8645 17.2243 28.688 17.2687C28.5115 17.3131 28.3366 17.3175 28.1635 17.2818C27.9925 17.2447 27.8237 17.1609 27.6569 17.0307C27.4901 16.9004 27.3301 16.7188 27.177 16.4861L25.6761 14.2051L26.4625 13.6876L27.9677 15.9751C28.0521 16.1035 28.1382 16.2011 28.2259 16.2681C28.3122 16.3329 28.3986 16.3742 28.4852 16.3921C28.5718 16.4099 28.657 16.4068 28.741 16.3828C28.8249 16.3587 28.906 16.3209 28.9843 16.2694C29.2084 16.122 29.356 15.9625 29.4271 15.791C29.4989 15.616 29.5126 15.4355 29.4682 15.2496C29.426 15.0623 29.3434 14.875 29.2203 14.688ZM31.0309 10.6815L31.4088 11.2558L29.4183 12.5656L29.0404 11.9913L31.0309 10.6815ZM29.0457 10.7487L29.8321 10.2312L32.0824 13.651C32.154 13.7598 32.2243 13.8335 32.2934 13.8722C32.3633 13.9073 32.4329 13.916 32.5024 13.8984C32.5718 13.8807 32.6446 13.8469 32.7207 13.7968C32.7751 13.761 32.8252 13.7234 32.8709 13.6839C32.9167 13.6445 32.9526 13.6115 32.9788 13.5849L33.3771 14.1832C33.3247 14.2457 33.2601 14.3132 33.1831 14.3857C33.1082 14.4567 33.0154 14.5288 32.9044 14.6018C32.7238 14.7206 32.5432 14.7943 32.3625 14.8228C32.1803 14.8491 32.0021 14.8152 31.8279 14.721C31.6536 14.6268 31.4871 14.4589 31.3282 14.2174L29.0457 10.7487Z" fill="#FF7070"/>
</svg>
