<svg width="64" height="64" viewBox="0 0 64 64" fill="none" xmlns="http://www.w3.org/2000/svg">
<path fill-rule="evenodd" clip-rule="evenodd" d="M22.8571 27.4286C30.4313 27.4286 36.5714 21.2885 36.5714 13.7143C36.5714 6.14011 30.4313 0 22.8571 0C15.283 0 9.14286 6.14011 9.14286 13.7143C9.14286 21.2885 15.283 27.4286 22.8571 27.4286ZM2.28571 57.1429H27.6613C26.3696 54.2181 26.6521 50.7003 28.7054 47.9589C31.6971 43.9653 37.3285 43.1155 41.3609 46.0178L44.1079 47.8665L44.4559 47.3586C41.3524 38.4179 32.8543 31.9999 22.8571 31.9999C10.2335 31.9999 0 42.2334 0 54.8571C0 56.1193 1.02335 57.1429 2.28571 57.1429Z" fill="#FF80AD"/>
<path fill-rule="evenodd" clip-rule="evenodd" d="M62.6267 37.256C64.1422 38.3913 64.4503 40.5401 63.3152 42.0556L49.0523 62.6271C48.507 63.3548 47.6951 63.8362 46.795 63.9651C45.8949 64.0945 44.9805 63.8609 44.2527 63.3155L33.967 56.1841C32.4515 55.049 32.1432 52.9 33.2785 51.3845C34.4137 49.8691 36.5626 49.5605 38.0781 50.6961L45.6197 55.7717L57.8272 37.9445C58.9623 36.429 61.1113 36.1208 62.6267 37.256Z" fill="#FF005A"/>
</svg>
