<svg width="66" height="31" viewBox="0 0 66 31" fill="none" xmlns="http://www.w3.org/2000/svg">
<path d="M17.9311 14.3318C18.9637 15.3754 19.7158 16.8181 19.7158 18.491V24.9526C19.7158 28.4826 17.4339 30.2476 15.1519 30.2476C12.8445 30.2476 10.5625 28.4826 10.5625 24.9526L10.588 22.4202H13.5456V24.8605C13.5456 25.6586 13.8643 26.6869 15.1519 26.6869C16.414 26.6869 16.7455 25.6586 16.7455 24.8605V18.5831C16.7455 16.5112 15.4196 16.1275 14.1575 16.1275V12.5974C15.4196 12.5974 16.7455 12.1523 16.7455 10.0957V5.90568C16.7455 5.10759 16.414 4.07928 15.1519 4.07928C13.8643 4.07928 13.5201 5.10759 13.5201 5.90568V8.34604H10.588L10.5625 5.81362C10.5625 2.28358 12.8445 0.518555 15.1519 0.518555C17.4339 0.518555 19.7158 2.28358 19.7158 5.81362V10.1724C19.7158 11.8607 18.9637 13.3034 17.9311 14.3318Z" fill="#1DD836"/>
<path d="M3.78073 0.871094L4.97909 24.8907L6.20293 0.871094H9.31354L7.57976 30.2778H2.35292L0.619141 0.871094H3.78073Z" fill="#231F20"/>
<path fill-rule="evenodd" clip-rule="evenodd" d="M25.2743 18.552H24.3054V30.2778H21.3223V0.871094H25.6567C29.0733 0.871094 30.1952 2.82027 30.1952 9.71152C30.1952 13.8401 29.6597 16.48 28.2319 17.7078L30.4246 30.2778H27.3523L25.2743 18.552ZM24.8408 14.9605C26.9443 14.9605 27.2375 13.3797 27.2375 9.71152C27.2375 5.21456 26.9188 4.46251 24.8408 4.46251H24.3181V14.9605H24.8408Z" fill="#231F20"/>
<path d="M34.7848 0.871094V30.2778H31.8271V0.871094H34.7848Z" fill="#231F20"/>
<path d="M39.1706 4.40113V12.996H42.1282V16.5874L39.1451 16.5721V30.2778H36.1875V0.871094H42.8039V4.43182L39.1706 4.40113Z" fill="#231F20"/>
<path d="M47.1002 0.871094V30.2778H44.1426V0.871094H47.1002Z" fill="#231F20"/>
<path d="M51.8298 4.43182V13.2723H55.1189V16.833L51.8043 16.8177V26.7171H55.8073V30.3085L48.8467 30.2778V0.871094H55.8073V4.43182H51.8298Z" fill="#231F20"/>
<path fill-rule="evenodd" clip-rule="evenodd" d="M65.3805 7.04098V24.108C65.3805 28.7738 64.1822 30.2778 60.0772 30.2778H57.0176V0.871094H60.0772C64.1822 0.871094 65.3805 2.35984 65.3805 7.04098ZM62.4229 8.19208C62.4229 4.75413 62.1552 4.43182 60.0772 4.43182H59.9752V15.5591L59.9625 26.7171H60.0772C62.1552 26.7171 62.4229 26.3795 62.4229 22.9569V8.19208Z" fill="#231F20"/>
</svg>
