<svg width="64" height="64" viewBox="0 0 64 64" fill="none" xmlns="http://www.w3.org/2000/svg">
<path fill-rule="evenodd" clip-rule="evenodd" d="M32.0018 0.0268555C30.7398 0.0268555 29.5022 0.375143 28.4254 1.03336C27.3486 1.69159 26.4744 2.6342 25.899 3.75741L25.8888 3.7774L0.749162 54.0568C0.224412 55.0995 -0.0272301 56.2629 0.0216341 57.4296C0.0705555 58.5976 0.41721 59.7336 1.02868 60.7297C1.64015 61.7258 2.49613 62.5491 3.51533 63.1214C4.53453 63.6938 5.68314 63.996 6.85201 63.9996H6.85895H57.1445H57.1514C58.3203 63.996 59.4691 63.6938 60.4881 63.1214C61.5075 62.5491 62.3633 61.7258 62.9749 60.7297C63.5866 59.7336 63.9331 58.5976 63.982 57.4296C64.0309 56.2629 63.7809 55.1027 63.2561 54.06L38.1148 3.7774L38.1047 3.75741C37.5292 2.6342 36.655 1.69159 35.5782 1.03336C34.5014 0.375143 33.2638 0.0268555 32.0018 0.0268555Z" fill="#FFE6E6"/>
<path fill-rule="evenodd" clip-rule="evenodd" d="M35.4297 22.286C35.4297 20.3925 33.8946 18.8574 32.0011 18.8574C30.1076 18.8574 28.5725 20.3925 28.5725 22.286V37.1431C28.5725 39.0367 30.1076 40.5717 32.0011 40.5717C33.8946 40.5717 35.4297 39.0367 35.4297 37.1431V22.286ZM32.0011 54.286C34.5258 54.286 36.5725 52.2394 36.5725 49.7146C36.5725 47.1898 34.5258 45.1431 32.0011 45.1431C29.4764 45.1431 27.4297 47.1898 27.4297 49.7146C27.4297 52.2394 29.4764 54.286 32.0011 54.286Z" fill="#E63535"/>
</svg>