<svg width="24" height="24" viewBox="0 0 24 24" fill="none" xmlns="http://www.w3.org/2000/svg">
<path fill-rule="evenodd" clip-rule="evenodd" d="M11.9991 7.00012C13.1917 7.00012 14.2624 7.52207 14.9953 8.34999C15.4278 8.1205 15.9105 8.00012 16.4013 8.00012C16.9279 8.00012 17.4452 8.13874 17.9013 8.40205C18.3573 8.66535 18.736 9.04406 18.9993 9.50012C19.2627 9.95618 19.4013 10.4735 19.4013 11.0001C19.4013 11.5267 19.2627 12.0441 18.9993 12.5001C18.9392 12.6043 18.873 12.7045 18.8013 12.8001C19.232 13.1232 19.5945 13.5309 19.8654 14.0001L18.133 15.0003C17.9571 14.6956 17.7039 14.4428 17.399 14.2672C17.0941 14.0917 16.7483 13.9997 16.3965 14.0005C16.1116 14.0012 15.8309 14.0628 15.573 14.1802C16.2302 14.6683 16.7842 15.2877 17.1961 15.9996L15.4638 16.9998C14.7721 15.8044 13.4795 15.0001 11.9991 15.0001C10.5187 15.0001 9.22608 15.8044 8.53441 16.9998L6.80207 15.9996C7.21397 15.2877 7.76795 14.6683 8.42522 14.1802C8.1673 14.0628 7.88663 14.0012 7.60172 14.0005C7.24991 13.9997 6.9041 14.0917 6.59921 14.2672C6.29431 14.4428 6.04113 14.6956 5.86522 15.0003L4.13281 14.0001C4.40369 13.5309 4.76616 13.1232 5.19691 12.8001C5.12517 12.7045 5.05899 12.6043 4.99884 12.5001C4.73553 12.0441 4.59691 11.5267 4.59691 11.0001C4.59691 10.4735 4.73553 9.95618 4.99884 9.50012C5.26214 9.04406 5.64086 8.66535 6.09691 8.40205C6.55297 8.13874 7.0703 8.00012 7.59691 8.00012C8.08766 8.00012 8.57035 8.1205 9.0029 8.34999C9.73575 7.52207 10.8065 7.00012 11.9991 7.00012ZM16.3011 12.0014C16.1614 11.9874 16.0258 11.9443 15.9032 11.8745C15.966 11.5931 15.9991 11.3005 15.9991 11.0001C15.9991 10.6998 15.966 10.4072 15.9032 10.1258C16.055 10.0393 16.2266 9.99386 16.4013 9.99386C16.5779 9.99386 16.7514 10.0404 16.9044 10.1287C17.0574 10.217 17.1844 10.344 17.2727 10.497C17.361 10.65 17.4075 10.8235 17.4075 11.0001C17.4075 11.1768 17.361 11.3503 17.2727 11.5033C17.1844 11.6562 17.0574 11.7832 16.9044 11.8716C16.7805 11.9431 16.6431 11.9872 16.5015 12.0014C16.4649 12.0005 16.4283 12 16.3917 12.0001C16.3614 12.0002 16.3312 12.0006 16.3011 12.0014ZM8.09495 10.1258C7.94322 10.0393 7.77159 9.99386 7.59691 9.99386C7.42028 9.99386 7.24676 10.0404 7.09378 10.1287C6.94081 10.217 6.81379 10.344 6.72547 10.497C6.63715 10.65 6.59066 10.8235 6.59066 11.0001C6.59066 11.1768 6.63715 11.3503 6.72547 11.5033C6.81379 11.6562 6.94081 11.7832 7.09378 11.8716C7.21769 11.9431 7.35509 11.9872 7.49669 12.0014C7.53327 12.0005 7.56989 12 7.60654 12.0001C7.63676 12.0002 7.66696 12.0006 7.69713 12.0014C7.8368 11.9874 7.97237 11.9443 8.09494 11.8745C8.03219 11.5931 7.99909 11.3005 7.99909 11.0001C7.99909 10.6998 8.03219 10.4072 8.09495 10.1258ZM13.9991 11.0001C13.9991 12.1047 13.1037 13.0001 11.9991 13.0001C10.8945 13.0001 9.99909 12.1047 9.99909 11.0001C9.99909 9.89555 10.8945 9.00012 11.9991 9.00012C13.1037 9.00012 13.9991 9.89555 13.9991 11.0001Z" fill="#7B7B7B"/>
</svg>
