<svg width="24" height="24" viewBox="0 0 24 24" fill="none" xmlns="http://www.w3.org/2000/svg">
<path fill-rule="evenodd" clip-rule="evenodd" d="M14.2399 16.1539C13.3895 16.6161 12.4149 16.8787 11.3789 16.8787C8.0652 16.8787 5.37891 14.1924 5.37891 10.8787C5.37891 7.56495 8.0652 4.87866 11.3789 4.87866C14.6926 4.87866 17.3789 7.56495 17.3789 10.8787C17.3789 12.4301 16.79 13.8441 15.8236 14.9092L18.6215 17.7071L17.2073 19.1213L14.2399 16.1539ZM15.3789 10.8787C15.3789 13.0878 13.588 14.8787 11.3789 14.8787C9.16977 14.8787 7.37891 13.0878 7.37891 10.8787C7.37891 8.66952 9.16977 6.87866 11.3789 6.87866C13.588 6.87866 15.3789 8.66952 15.3789 10.8787Z" fill="#7B7B7B"/>
</svg>
