<svg width="24" height="24" viewBox="0 0 24 24" fill="none" xmlns="http://www.w3.org/2000/svg">
<path fill-rule="evenodd" clip-rule="evenodd" d="M15.3341 14.2261C16.3564 13.3106 16.9997 11.9806 16.9997 10.5002C16.9997 7.73882 14.7611 5.50024 11.9997 5.50024C9.23824 5.50024 6.99966 7.73882 6.99966 10.5002C6.99966 11.9806 7.64297 13.3106 8.66526 14.2261C7.15488 14.9196 5.89765 16.0697 5.07031 17.4996L6.80265 18.4998C7.84015 16.7066 9.77903 15.5002 11.9997 15.5002C14.2203 15.5002 16.1592 16.7066 17.1967 18.4997L18.929 17.4996C18.1017 16.0697 16.8445 14.9196 15.3341 14.2261ZM14.9997 10.5002C14.9997 12.1571 13.6565 13.5002 11.9997 13.5002C10.3428 13.5002 8.99966 12.1571 8.99966 10.5002C8.99966 8.84339 10.3428 7.50024 11.9997 7.50024C13.6565 7.50024 14.9997 8.84339 14.9997 10.5002Z" fill="#7B7B7B"/>
</svg>
