<svg width="16" height="16" viewBox="0 0 16 16" fill="none" xmlns="http://www.w3.org/2000/svg">
<g id="book-reading--book-reading-learning">
<path id="Subtract" fill-rule="evenodd" clip-rule="evenodd" d="M1.14081 0.0631332C1.35653 0.000331053 1.58313 -0.0158564 1.80558 0.0156462L1.81904 0.0175524C3.83494 0.352128 5.69462 1.29627 7.15151 2.71539C8.6084 1.29627 10.4681 0.352128 12.484 0.0175524L12.4975 0.0156462C12.7199 -0.0158564 12.9465 0.000331053 13.1622 0.0631332C13.3779 0.125936 13.5779 0.234022 13.7487 0.380007C13.9225 0.528696 14.0621 0.71328 14.1578 0.921058C14.2535 1.12883 14.303 1.35489 14.303 1.58363V9.73096C14.3049 10.1218 14.1622 10.4995 13.9023 10.7915C13.8423 10.859 13.777 10.9207 13.7073 10.9763C13.485 10.9348 13.2557 10.9131 13.0213 10.9131H12.1641V9.1988C12.1641 7.62085 10.8849 6.34166 9.30691 6.34166C7.72896 6.34166 6.44977 7.62085 6.44977 9.1988V13.3287C4.77461 12.1616 3.26273 11.6225 1.3923 11.3107C1.00978 11.2642 0.657133 11.0797 0.400685 10.7915C0.140816 10.4995 -0.00187702 10.1218 1.86479e-05 9.73096V1.58363C9.04305e-06 1.35489 0.0495491 1.12883 0.145231 0.921058C0.240919 0.71328 0.380482 0.528696 0.554319 0.380007C0.725094 0.234022 0.925099 0.125936 1.14081 0.0631332Z" fill="#8FBFFA"/>
<path id="Union" fill-rule="evenodd" clip-rule="evenodd" d="M6.44977 9.19783C6.44977 8.14536 7.01885 7.2258 7.86607 6.73007V2.08203C7.45222 2.41442 6.85133 2.4149 6.4375 2.08248V12.9122C6.4375 12.9574 6.44172 13.0018 6.44977 13.0446V9.19783ZM7.87844 15.1979V9.19783C7.87844 8.40884 8.51804 7.76925 9.30701 7.76925C10.096 7.76925 10.7356 8.40884 10.7356 9.19783V12.3407H13.0213C14.2837 12.3407 15.307 13.3641 15.307 14.6265V15.1979C15.307 15.5134 15.0512 15.7693 14.7355 15.7693H8.44987C8.13428 15.7693 7.87844 15.5134 7.87844 15.1979Z" fill="#2859C5"/>
</g>
</svg>
