<svg width="16" height="16" viewBox="0 0 16 16" fill="none" xmlns="http://www.w3.org/2000/svg">
<path fill-rule="evenodd" clip-rule="evenodd" d="M4 0C4.63118 0 5.14286 0.511674 5.14286 1.14286V2.28571H10.8572V1.14286C10.8572 0.511674 11.3689 0 12.0001 0C12.6313 0 13.143 0.511674 13.143 1.14286V2.28571H14.2857C15.2325 2.28571 16 3.05322 16 4V5.14286H0V4C0 3.05322 0.767512 2.28571 1.71429 2.28571H2.85714V1.14286C2.85714 0.511674 3.36882 0 4 0Z" fill="#2859C5"/>
<path d="M0 5.14258H16V14.2854C16 15.2322 15.2325 15.9997 14.2857 15.9997H1.71429C0.767512 15.9997 0 15.2322 0 14.2854V5.14258Z" fill="#8FBFFA"/>
</svg>
