<svg width="64" height="52" viewBox="0 0 64 52" fill="none" xmlns="http://www.w3.org/2000/svg">
<path d="M22.8571 0.857422C22.1377 0.857422 21.4603 1.19616 21.0286 1.77171L14.8571 10.0003H6.85714C5.03849 10.0003 3.29437 10.7227 2.00841 12.0087C0.722446 13.2946 0 15.0388 0 16.8574V44.286C0 46.1045 0.722446 47.849 2.00841 49.1349C3.29437 50.4208 5.03849 51.1431 6.85714 51.1431H57.1429C58.9614 51.1431 60.7058 50.4208 61.9918 49.1349C63.2777 47.849 64 46.1045 64 44.286V16.8574C64 15.0388 63.2777 13.2946 61.9918 12.0087C60.7058 10.7227 58.9614 10.0003 57.1429 10.0003H49.1429L42.9714 1.77171C42.5397 1.19616 41.8623 0.857422 41.1429 0.857422H22.8571Z" fill="#8FBFFA"/>
<path d="M31.9998 40.5033C38.214 40.5033 43.2516 35.466 43.2516 29.2517C43.2516 23.0376 38.214 18 31.9998 18C25.7856 18 20.748 23.0376 20.748 29.2517C20.748 35.466 25.7856 40.5033 31.9998 40.5033Z" fill="#2859C5"/>
</svg>
