<svg width="16" height="16" viewBox="0 0 16 16" fill="none" xmlns="http://www.w3.org/2000/svg">
<g id="chat-bubble-oval--messages-message-bubble-chat-oval">
<path id="Union" fill-rule="evenodd" clip-rule="evenodd" d="M11.4517 0.840424C10.3743 0.321306 9.19361 0.052055 7.99766 0.0527357C6.56023 0.0532134 5.14967 0.443557 3.91654 1.18219C2.68335 1.92087 1.67362 2.98019 0.994871 4.24735C0.316128 5.5145 -0.00620202 6.94203 0.0622127 8.37788C0.125916 9.71485 0.526168 11.0124 1.22371 12.151L0.0874463 15.1741C0.0150872 15.3667 0.0517637 15.5832 0.183481 15.7411C0.315198 15.899 0.521635 15.9741 0.724017 15.9374L4.68514 15.2212C5.71293 15.6933 6.83037 15.9409 7.96284 15.9465C9.15882 15.9524 10.3407 15.6883 11.4204 15.1739C12.5001 14.6595 13.4498 13.908 14.1986 12.9754C14.9474 12.0428 15.4761 10.9533 15.7453 9.78799C16.0144 8.62266 16.017 7.41162 15.753 6.24514C15.4889 5.07866 14.965 3.98682 14.2202 3.05101C13.4756 2.11521 12.5292 1.35956 11.4517 0.840424Z" fill="#8FBFFA"/>
</g>
</svg>
