<svg width="23" height="24" viewBox="0 0 23 24" fill="none" xmlns="http://www.w3.org/2000/svg">
<g clip-path="url(#clip0_3353_9031)">
<path d="M22.3757 12C22.3757 18.4203 17.4463 23.625 11.3656 23.625C5.28485 23.625 0.355469 18.4203 0.355469 12C0.355469 5.57967 5.28485 0.375 11.3656 0.375C17.4463 0.375 22.3757 5.57967 22.3757 12ZM10.0921 18.1553L18.2609 9.53034C18.5382 9.23747 18.5382 8.76258 18.2609 8.4697L17.2563 7.40906C16.9789 7.11614 16.5292 7.11614 16.2517 7.40906L9.58977 14.443L6.47945 11.159C6.20207 10.8661 5.75229 10.8661 5.47487 11.159L4.47032 12.2197C4.19294 12.5125 4.19294 12.9874 4.47032 13.2803L9.08747 18.1553C9.3649 18.4482 9.81463 18.4482 10.0921 18.1553Z" fill="#2CA14F"/>
</g>
<defs>
<clipPath id="clip0_3353_9031">
<rect width="22.7306" height="24" fill="white"/>
</clipPath>
</defs>
</svg>
