<svg width="40" height="40" viewBox="0 0 40 40" fill="none" xmlns="http://www.w3.org/2000/svg">
<path d="M20.0003 27.5C23.2605 27.5 26.0348 25.4199 27.0685 22.5144L30.7694 18.8134C30.8119 19.2031 30.8337 19.599 30.8337 20C30.8337 25.9831 25.9834 30.8334 20.0003 30.8334C14.0172 30.8334 9.16699 25.9831 9.16699 20C9.16699 14.0169 14.0172 9.16669 20.0003 9.16669C21.818 9.16669 23.531 9.61432 25.0353 10.4054L22.5104 12.9303C21.7256 12.6517 20.8807 12.5 20.0003 12.5C15.8582 12.5 12.5003 15.8579 12.5003 20C12.5003 24.1422 15.8582 27.5 20.0003 27.5Z" fill="#87E97C"/>
<path d="M19.1694 25.8365L30.1488 14.857L27.7918 12.5L19.1694 21.1224L16.5236 18.4767L14.1666 20.8337L19.1694 25.8365Z" fill="#87E97C"/>
</svg>
