<svg width="14" height="16" viewBox="0 0 14 16" fill="none" xmlns="http://www.w3.org/2000/svg">
<path fill-rule="evenodd" clip-rule="evenodd" d="M7.00014 2.28571C5.73777 2.28571 4.71443 3.30906 4.71443 4.57143V6.28571C4.71443 6.91689 4.20275 7.42857 3.57157 7.42857C2.94039 7.42857 2.42871 6.91689 2.42871 6.28571V4.57143C2.42871 2.0467 4.47541 0 7.00014 0C9.52487 0 11.5716 2.0467 11.5716 4.57143V6.28571C11.5716 6.91689 11.0599 7.42857 10.4287 7.42857C9.79753 7.42857 9.28585 6.91689 9.28585 6.28571V4.57143C9.28585 3.30906 8.26251 2.28571 7.00014 2.28571Z" fill="#2859C5"/>
<path d="M0.714355 7.42815C0.714355 6.48138 1.48186 5.71387 2.42864 5.71387H11.5715C12.5183 5.71387 13.2857 6.48138 13.2857 7.42815V14.2853C13.2857 15.232 12.5183 15.9996 11.5715 15.9996H2.42864C1.48186 15.9996 0.714355 15.232 0.714355 14.2853V7.42815Z" fill="#8FBFFA"/>
<path d="M7.0001 12.2859C7.78908 12.2859 8.42868 11.6463 8.42868 10.8573C8.42868 10.0683 7.78908 9.42871 7.0001 9.42871C6.21113 9.42871 5.57153 10.0683 5.57153 10.8573C5.57153 11.6463 6.21113 12.2859 7.0001 12.2859Z" fill="#2859C5"/>
</svg>