<svg width="16" height="16" viewBox="0 0 16 16" fill="none" xmlns="http://www.w3.org/2000/svg">
<path fill-rule="evenodd" clip-rule="evenodd" d="M1.95098 0.334735C1.50466 -0.111578 0.781048 -0.111578 0.334735 0.334735C-0.111578 0.781048 -0.111578 1.50466 0.334735 1.95098L6.38376 8L0.334735 14.049C-0.111578 14.4953 -0.111578 15.219 0.334735 15.6653C0.781048 16.1115 1.50466 16.1115 1.95098 15.6653L8 9.61624L14.049 15.6653C14.4953 16.1115 15.219 16.1115 15.6653 15.6653C16.1115 15.219 16.1115 14.4953 15.6653 14.049L9.61624 8L15.6653 1.95098C16.1115 1.50466 16.1115 0.781048 15.6653 0.334735C15.219 -0.111578 14.4953 -0.111578 14.049 0.334735L8 6.38376L1.95098 0.334735Z" fill="#8FBFFA"/>
</svg>
