<svg width="16" height="16" viewBox="0 0 16 16" fill="none" xmlns="http://www.w3.org/2000/svg">
<g id="definition-search-book">
<path id="Subtract" fill-rule="evenodd" clip-rule="evenodd" d="M0.571429 0.142578C0.255838 0.142578 0 0.398416 0 0.714007V12.1425C0 12.4582 0.255838 12.714 0.571429 12.714H6.00693C5.81741 12.1778 5.71429 11.6008 5.71429 10.9997C5.71429 9.54672 6.31685 8.23446 7.28571 7.29919V1.63111C6.96219 0.761823 6.12485 0.142578 5.14286 0.142578H0.571429ZM8.71429 1.6311V6.32319C9.36662 6.02378 10.0924 5.85686 10.8571 5.85686C13.5013 5.85686 15.6793 7.85226 15.9677 10.4194H16V0.714007C16 0.398416 15.7441 0.142578 15.4286 0.142578H10.8571C9.87517 0.142578 9.03781 0.761806 8.71429 1.6311Z" fill="#8FBFFA"/>
<path id="Union" fill-rule="evenodd" clip-rule="evenodd" d="M8.85711 10.9994C8.85711 9.89488 9.75254 8.99944 10.8571 8.99944C11.9617 8.99944 12.8571 9.89488 12.8571 10.9994C12.8571 12.104 11.9617 12.9994 10.8571 12.9994C9.75254 12.9994 8.85711 12.104 8.85711 10.9994ZM10.8571 7.28516C8.80576 7.28516 7.14282 8.94811 7.14282 10.9994C7.14282 13.0508 8.80576 14.7137 10.8571 14.7137C11.5722 14.7137 12.2402 14.5116 12.8069 14.1615L14.2505 15.605C14.5852 15.9397 15.128 15.9397 15.4627 15.605C15.7974 15.2703 15.7974 14.7275 15.4627 14.3928L14.0191 12.9492C14.3693 12.3825 14.5714 11.7146 14.5714 10.9994C14.5714 8.94811 12.9084 7.28516 10.8571 7.28516Z" fill="#2859C5"/>
</g>
</svg>
