<svg width="24" height="24" viewBox="0 0 24 24" fill="none" xmlns="http://www.w3.org/2000/svg">
<path fill-rule="evenodd" clip-rule="evenodd" d="M4.28488 4.83984C3.81149 4.83984 3.42773 5.2236 3.42773 5.69699V21.3732C3.42773 22.0583 3.69539 22.7178 4.17609 23.2062C4.65722 23.6951 5.31273 23.9723 5.99916 23.9723H17.9992C18.6856 23.9723 19.3411 23.6951 19.8223 23.2062C20.303 22.7178 20.5706 22.0583 20.5706 21.3732V5.69699C20.5706 5.2236 20.1868 4.83984 19.7134 4.83984H4.28488Z" fill="#8FBFFA"/>
<path fill-rule="evenodd" clip-rule="evenodd" d="M9.64286 12.213C9.64286 11.6213 9.16317 11.1416 8.57143 11.1416C7.97969 11.1416 7.5 11.6213 7.5 12.213V19.0728C7.5 19.6644 7.97969 20.1442 8.57143 20.1442C9.16317 20.1442 9.64286 19.6644 9.64286 19.0728V12.213ZM16.5 12.213C16.5 11.6213 16.0203 11.1416 15.4286 11.1416C14.8368 11.1416 14.3571 11.6213 14.3571 12.213V19.0728C14.3571 19.6644 14.8368 20.1442 15.4286 20.1442C16.0203 20.1442 16.5 19.6644 16.5 19.0728V12.213Z" fill="#2859C5"/>
<path fill-rule="evenodd" clip-rule="evenodd" d="M11.9991 2.57143C11.2035 2.57143 10.4404 2.88749 9.87784 3.4501C9.52235 3.80559 9.26529 4.24109 9.1242 4.71429H14.8741C14.733 4.24109 14.4759 3.80559 14.1205 3.4501C13.5579 2.88749 12.7948 2.57143 11.9991 2.57143ZM17.5042 4.71429C17.3236 3.55407 16.7794 2.47246 15.9387 1.63183C14.8939 0.586989 13.4768 0 11.9991 0C10.5215 0 9.1044 0.586989 8.05956 1.63183C7.21893 2.47246 6.67466 3.55407 6.49403 4.71429H1.71345C1.00337 4.71429 0.427734 5.28993 0.427734 6C0.427734 6.71007 1.00337 7.28571 1.71345 7.28571H22.2849C22.9949 7.28571 23.5706 6.71007 23.5706 6C23.5706 5.28993 22.9949 4.71429 22.2849 4.71429H17.5042Z" fill="#2859C5"/>
</svg>
