<svg width="24" height="24" viewBox="0 0 24 24" fill="none" xmlns="http://www.w3.org/2000/svg">
<path fill-rule="evenodd" clip-rule="evenodd" d="M6 0C6.94677 0 7.71429 0.767511 7.71429 1.71429V3.42857H16.2859V1.71429C16.2859 0.767511 17.0534 0 18.0002 0C18.947 0 19.7145 0.767511 19.7145 1.71429V3.42857H21.4286C22.8487 3.42857 24 4.57983 24 6V7.71429H0V6C0 4.57983 1.15127 3.42857 2.57143 3.42857H4.28571V1.71429C4.28571 0.767511 5.05323 0 6 0Z" fill="#2859C5"/>
<path d="M0 7.71436H24V21.4286C24 22.8488 22.8487 24.0001 21.4286 24.0001H2.57143C1.15127 24.0001 0 22.8488 0 21.4286V7.71436Z" fill="#8FBFFA"/>
<path fill-rule="evenodd" clip-rule="evenodd" d="M14.6781 9.98245C14.5977 9.90204 14.4886 9.85687 14.3749 9.85693C14.2611 9.857 14.1521 9.90226 14.0717 9.98278L7.00408 17.0655C6.93847 17.1312 6.89601 17.2165 6.88305 17.3084L6.43193 20.5114C6.41319 20.6444 6.45785 20.7785 6.55257 20.8736C6.64728 20.9688 6.7811 21.014 6.91413 20.9958L10.1171 20.5597C10.21 20.5472 10.2961 20.5044 10.3624 20.4382L17.4451 13.3555C17.6124 13.1881 17.6124 12.9167 17.4451 12.7494L14.6781 9.98245Z" fill="#2859C5"/>
</svg>
