<svg width="16" height="16" viewBox="0 0 16 16" fill="none" xmlns="http://www.w3.org/2000/svg">
<path fill-rule="evenodd" clip-rule="evenodd" d="M0.764982 0.765104C1.18978 0.340258 1.76595 0.101562 2.36675 0.101562H13.631C14.2318 0.101562 14.808 0.340258 15.2328 0.765104C15.6576 1.18995 15.8963 1.76613 15.8963 2.36691V8.2733L14.2319 6.60874C13.9638 6.3406 13.6 6.19005 13.2209 6.19026C12.8417 6.19045 12.4782 6.34139 12.2103 6.60981L6.94248 11.8896C6.72387 12.1087 6.58232 12.3928 6.53916 12.6993L6.20291 15.087C6.16347 15.3671 6.20842 15.6486 6.32654 15.8979H2.36675C1.76595 15.8979 1.18978 15.6592 0.764982 15.2344C0.34019 14.8096 0.101562 14.2334 0.101562 13.6326V2.36691C0.101562 1.76613 0.34019 1.18995 0.764982 0.765104ZM7.61752 15.2862L10.005 14.961L9.08839 15.0859L7.61752 15.2862Z" fill="#8FBFFA"/>
<path d="M10.2167 6.33916C11.1497 6.33916 11.906 5.58281 11.906 4.64981C11.906 3.71679 11.1497 2.96045 10.2167 2.96045C9.2837 2.96045 8.52734 3.71679 8.52734 4.64981C8.52734 5.58281 9.2837 6.33916 10.2167 6.33916Z" fill="#2859C5"/>
<path fill-rule="evenodd" clip-rule="evenodd" d="M8.80231 10.0474C8.4749 9.79058 8.17986 9.56883 7.96507 9.41263C6.20774 8.50963 4.21511 8 2.10344 8C1.42247 8 0.753877 8.05299 0.101562 8.1551V13.6328C0.101562 14.2336 0.34019 14.8097 0.764982 15.2346C1.18978 15.6594 1.76595 15.8982 2.36675 15.8982H6.3082C6.2017 15.6574 6.1624 15.3886 6.20007 15.121L6.53795 12.7222C6.58111 12.4157 6.72268 12.1314 6.94133 11.9123L8.80231 10.0474Z" fill="#2859C5"/>
<path d="M15.3168 9.68702L10.0122 14.9917L7.61328 15.3182L7.95116 12.9193L13.2445 7.61475L15.3168 9.68702Z" fill="#2859C5"/>
</svg>
