<svg width="16" height="14" viewBox="0 0 16 14" fill="none" xmlns="http://www.w3.org/2000/svg">
<path fill-rule="evenodd" clip-rule="evenodd" d="M1.71429 0.428711C0.767512 0.428711 0 1.19622 0 2.143V11.8573C0 12.804 0.767512 13.5716 1.71429 13.5716H14.2857C15.2325 13.5716 16 12.804 16 11.8573V2.143C16 1.19622 15.2325 0.428711 14.2857 0.428711H1.71429Z" fill="#8FBFFA"/>
<path fill-rule="evenodd" clip-rule="evenodd" d="M16 2.53369L8.43818 7.57579C8.33152 7.64438 8.17672 7.69333 8 7.69333C7.82328 7.69333 7.66848 7.64438 7.56182 7.57579L0 2.53369V4.25072L6.77322 8.76705L6.77985 8.77136C7.13946 9.00544 7.57127 9.1219 8 9.1219C8.42873 9.1219 8.86057 9.00547 9.22017 8.77141L16 4.25071V2.53369Z" fill="#2859C5"/>
</svg>
