<svg width="14" height="16" viewBox="0 0 14 16" fill="none" xmlns="http://www.w3.org/2000/svg">
<path d="M1.85686 0C1.40221 0 0.966167 0.179468 0.644681 0.498925C0.323195 0.81838 0.142578 1.25166 0.142578 1.70344V14.1953C0.142578 14.647 0.323195 15.0804 0.644681 15.3999C0.966167 15.7193 1.4022 15.8987 1.85686 15.8987H12.1426C12.5972 15.8987 13.0333 15.7193 13.3548 15.3999C13.6763 15.0804 13.8569 14.647 13.8569 14.1953V5.11031C13.8569 4.95971 13.7966 4.81528 13.6895 4.70881L9.11806 0.166309C9.01091 0.0598229 8.86556 0 8.71401 0H1.85686Z" fill="#8FBFFA"/>
<path fill-rule="evenodd" clip-rule="evenodd" d="M7.33147 12.3078L7.21269 12.4258C7.07874 12.559 6.89705 12.6337 6.70761 12.6337C6.51817 12.6337 6.33649 12.559 6.20253 12.4258L6.08372 12.3078C5.95065 12.2215 5.8368 12.1082 5.74992 11.976L3.6311 9.87064C3.42682 9.66765 3.36571 9.36237 3.47627 9.09715C3.58683 8.83193 3.84728 8.659 4.13618 8.659H5.56476V4.54236C5.56476 3.91518 6.07644 3.40674 6.70762 3.40674C7.3388 3.40674 7.85048 3.91518 7.85048 4.54236V8.659H9.27904C9.56794 8.659 9.8284 8.83193 9.93896 9.09715C10.0495 9.36237 9.9884 9.66765 9.78411 9.87064L7.66534 11.976C7.57846 12.1082 7.46458 12.2215 7.33147 12.3078Z" fill="#2859C5"/>
</svg>
