<svg width="16" height="12" viewBox="0 0 16 12" fill="none" xmlns="http://www.w3.org/2000/svg">
  <path d="M8 0.285645C6.23497 0.285645 4.63531 1.06481 3.35166 1.98963C2.06336 2.9178 1.04346 4.02846 0.426046 4.77466L0.420891 4.78098C0.145171 5.12407 0 5.55883 0 6C0 6.44115 0.145171 6.87593 0.420891 7.21902L0.426046 7.22534C1.04346 7.97153 2.06336 9.08219 3.35166 10.0103C4.63531 10.9351 6.23497 11.7143 8 11.7143C9.76504 11.7143 11.3647 10.9351 12.6483 10.0103C13.9367 9.08219 14.9566 7.97153 15.5739 7.22534L15.5791 7.21902C15.8549 6.87593 16 6.44115 16 6C16 5.55883 15.8549 5.12407 15.5791 4.78098L15.5739 4.77466C14.9566 4.02846 13.9367 2.9178 12.6483 1.98963C11.3647 1.06481 9.76504 0.285645 8 0.285645Z" fill="#8FBFFA"/>
  <path d="M7.9999 8.57157C9.42006 8.57157 10.5713 7.4203 10.5713 6.00014C10.5713 4.57998 9.42006 3.42871 7.9999 3.42871C6.57973 3.42871 5.42847 4.57998 5.42847 6.00014C5.42847 7.4203 6.57973 8.57157 7.9999 8.57157Z" fill="#2859C5"/>
  <path d="M0.5 0.5L15.5 11.5" stroke="#8FBFFA" stroke-width="1.5"/>
</svg>