
<svg width="12" height="12" viewBox="0 0 12 12" fill="none" xmlns="http://www.w3.org/2000/svg">
<path d="M6 11.924C9.31371 11.924 12 9.25476 12 5.96202C12 2.66929 9.31371 0 6 0C2.68629 0 0 2.66929 0 5.96202C0 9.25476 2.68629 11.924 6 11.924Z" fill="#8FBFFA"/>
<path fill-rule="evenodd" clip-rule="evenodd" d="M6.85631 3.40689C6.85631 3.87728 6.47255 4.25861 5.99916 4.25861C5.52578 4.25861 5.14202 3.87728 5.14202 3.40689C5.14202 2.93651 5.52578 2.55518 5.99916 2.55518C6.47255 2.55518 6.85631 2.93651 6.85631 3.40689ZM4.17773 8.5172C4.17773 8.2232 4.41758 7.98488 4.71345 7.98488H5.46345V6.06851H5.14202C4.84615 6.06851 4.60631 5.83018 4.60631 5.53619C4.60631 5.24219 4.84615 5.00386 5.14202 5.00386H5.99916C6.29503 5.00386 6.53488 5.24219 6.53488 5.53619V7.98488H7.28488C7.58075 7.98488 7.82059 8.2232 7.82059 8.5172C7.82059 8.81121 7.58075 9.04952 7.28488 9.04952H5.99916H4.71345C4.41758 9.04952 4.17773 8.81121 4.17773 8.5172Z" fill="#2859C5"/>
</svg>
