<svg width="16" height="16" viewBox="0 0 16 16" fill="none" xmlns="http://www.w3.org/2000/svg">
<path fill-rule="evenodd" clip-rule="evenodd" d="M8.00014 2.28571C6.73777 2.28571 5.71443 3.30906 5.71443 4.57143V6.28571C5.71443 6.91689 5.20275 7.42857 4.57157 7.42857C3.94039 7.42857 3.42871 6.91689 3.42871 6.28571V4.57143C3.42871 2.0467 5.47541 0 8.00014 0C10.5249 0 12.5716 2.0467 12.5716 4.57143V6.28571C12.5716 6.91689 12.0599 7.42857 11.4287 7.42857C10.7975 7.42857 10.2859 6.91689 10.2859 6.28571V4.57143C10.2859 3.30906 9.26251 2.28571 8.00014 2.28571Z" fill="#2859C5"/>
<path d="M1.71436 7.42815C1.71436 6.48138 2.48186 5.71387 3.42864 5.71387H12.5715C13.5183 5.71387 14.2857 6.48138 14.2857 7.42815V14.2853C14.2857 15.232 13.5183 15.9996 12.5715 15.9996H3.42864C2.48186 15.9996 1.71436 15.232 1.71436 14.2853V7.42815Z" fill="#8FBFFA"/>
<path d="M8.0001 12.2859C8.78908 12.2859 9.42868 11.6463 9.42868 10.8573C9.42868 10.0683 8.78908 9.42871 8.0001 9.42871C7.21113 9.42871 6.57153 10.0683 6.57153 10.8573C6.57153 11.6463 7.21113 12.2859 8.0001 12.2859Z" fill="#2859C5"/>
</svg>