<svg width="12" height="12" viewBox="0 0 12 12" fill="none" xmlns="http://www.w3.org/2000/svg">
<g clip-path="url(#clip0_4602_3416)">
<path d="M0.418213 2.14307V9.60792C0.418213 10.9284 2.91713 12.0002 5.99999 12.0002C9.08289 12.0002 11.5818 10.9284 11.5818 9.60792V2.14307" fill="#D9D9D9"/>
<path d="M6.00002 4.28571C9.07707 4.28571 11.5714 3.32632 11.5714 2.14286C11.5714 0.959391 9.07707 0 6.00002 0C2.923 0 0.428589 0.959391 0.428589 2.14286C0.428589 3.32632 2.923 4.28571 6.00002 4.28571Z" fill="#008AD8"/>
<path fill-rule="evenodd" clip-rule="evenodd" d="M0.418213 7.27959V5.86719C0.466186 5.93996 0.534327 6.01977 0.629235 6.10606C0.8778 6.33208 1.26735 6.56023 1.79413 6.76288C2.84412 7.1668 4.33094 7.4281 6 7.4281C7.66905 7.4281 9.15591 7.1668 10.2058 6.76288C10.7326 6.56023 11.1222 6.33208 11.3708 6.10606C11.4657 6.01978 11.5338 5.93997 11.5818 5.8672V7.27959C11.2893 7.462 10.9542 7.62296 10.5905 7.76287C9.3894 8.22495 7.76625 8.49952 6 8.49952C4.23374 8.49952 2.61059 8.22495 1.40944 7.76287C1.04575 7.62296 0.710639 7.462 0.418213 7.27959Z" fill="#008AD8"/>
</g>
<defs>
<clipPath id="clip0_4602_3416">
<rect width="12" height="12" fill="white"/>
</clipPath>
</defs>
</svg>
