<svg width="14" height="16" viewBox="0 0 14 16" fill="none" xmlns="http://www.w3.org/2000/svg">
<g id="manual-book">
<path id="vector" d="M3.00005 15.1434H12.4098V11.7148H3.00005C2.5454 11.7148 2.10936 11.8954 1.78787 12.217C1.46638 12.5385 1.28577 12.9745 1.28577 13.4291C1.28577 13.8838 1.46638 14.3199 1.78787 14.6414C2.10936 14.9628 2.5454 15.1434 3.00005 15.1434Z" fill="#2859C5"/>
<path id="Union" fill-rule="evenodd" clip-rule="evenodd" d="M0.428589 2.57143V13.2857C0.428589 14.7848 1.64381 16 3.14287 16H12.7143C13.1877 16 13.5714 15.6162 13.5714 15.1429C13.5714 14.6695 13.1877 14.2857 12.7143 14.2857H3.14287C2.59059 14.2857 2.14287 13.8379 2.14287 13.2857C2.14287 12.7335 2.59059 12.2857 3.14287 12.2857H12.7143C13.1877 12.2857 13.5714 11.9019 13.5714 11.4286V2.57143C13.5714 1.15127 12.4201 0 11 0H3.00002C1.57986 0 0.428589 1.15127 0.428589 2.57143Z" fill="#8FBFFA"/>
<path id="Union_2" fill-rule="evenodd" clip-rule="evenodd" d="M7.19507 3.23295C7.00109 3.19436 6.80003 3.21416 6.6173 3.28985C6.43458 3.36553 6.27839 3.49372 6.16851 3.65816C6.05863 3.82261 5.99998 4.01594 5.99998 4.21373C5.99998 4.60822 5.68019 4.92801 5.2857 4.92801C4.89121 4.92801 4.57141 4.60822 4.57141 4.21373C4.57141 3.73341 4.71385 3.26386 4.9807 2.86449C5.24756 2.46511 5.62684 2.15383 6.07061 1.97003C6.51437 1.78621 7.00268 1.73812 7.47378 1.83182C7.94487 1.92553 8.3776 2.15683 8.71724 2.49647C9.05688 2.83612 9.28819 3.26885 9.38189 3.73994C9.47559 4.21104 9.4275 4.69934 9.24368 5.1431C9.05988 5.58687 8.7486 5.96616 8.34923 6.23302C8.152 6.36479 7.93767 6.46623 7.71339 6.53516C7.69478 6.91305 7.3825 7.21373 6.99998 7.21373C6.60549 7.21373 6.2857 6.89393 6.2857 6.49944V5.92801C6.2857 5.53352 6.60549 5.21373 6.99998 5.21373C7.19777 5.21373 7.3911 5.15508 7.55555 5.0452C7.72001 4.93532 7.84818 4.77914 7.92386 4.59641C7.99955 4.41369 8.01935 4.21262 7.98077 4.01864C7.94219 3.82466 7.84694 3.64648 7.70709 3.50662C7.56724 3.36677 7.38906 3.27153 7.19507 3.23295ZM5.99998 9.1529C5.99998 9.70519 6.4477 10.1529 6.99998 10.1529C7.55227 10.1529 7.99998 9.70519 7.99998 9.1529C7.99998 8.60062 7.55227 8.1529 6.99998 8.1529C6.4477 8.1529 5.99998 8.60062 5.99998 9.1529Z" fill="#2859C5"/>
</g>
</svg>
