<svg width="12" height="12" viewBox="0 0 12 12" fill="none" xmlns="http://www.w3.org/2000/svg">
<path fill-rule="evenodd" clip-rule="evenodd" d="M3.42857 3H2.57143C1.15127 3 0 4.15127 0 5.57143C0 6.69105 0.71555 7.64354 1.71429 7.99653V9C1.71429 10.4202 2.86556 11.5714 4.28571 11.5714H4.71429C5.18767 11.5714 5.57143 11.1877 5.57143 10.7143C5.57143 10.2409 5.18767 9.85714 4.71429 9.85714H4.28571C3.81233 9.85714 3.42857 9.4734 3.42857 9V8.14286V7.71429V3Z" fill="white"/>
<path d="M9.99718 0.681417L3.42505 3.00019V8.14305L10.0652 10.1504C11.017 10.4279 12 9.80819 12 8.93065V1.87971C12 0.97539 10.9609 0.353649 9.99718 0.681417Z" fill="white"/>
</svg>
