<svg width="167" height="167" viewBox="0 0 167 167" fill="none" xmlns="http://www.w3.org/2000/svg">
<path fill-rule="evenodd" clip-rule="evenodd" d="M41.75 0C48.3379 0 53.6786 5.3406 53.6786 11.9286V23.8571H113.323V11.9286C113.323 5.3406 118.663 0 125.251 0C131.839 0 137.18 5.3406 137.18 11.9286V23.8571H149.107C158.989 23.8571 167 31.868 167 41.75V53.6786H0V41.75C0 31.868 8.01091 23.8571 17.8929 23.8571H29.8214V11.9286C29.8214 5.3406 35.1621 0 41.75 0Z" fill="#2859C5"/>
<path d="M0 53.6777H167V149.106C167 158.988 158.989 166.999 149.107 166.999H17.8929C8.01091 166.999 0 158.988 0 149.106V53.6777Z" fill="#8FBFFA"/>
<path fill-rule="evenodd" clip-rule="evenodd" d="M102.141 69.4633C101.582 68.9037 100.822 68.5894 100.031 68.5898C99.2395 68.5903 98.4808 68.9052 97.9217 69.4655L48.7426 118.749C48.286 119.207 47.9906 119.8 47.9004 120.44L44.7614 142.727C44.631 143.653 44.9417 144.586 45.6008 145.248C46.2599 145.91 47.191 146.225 48.1167 146.098L70.4042 143.063C71.0503 142.976 71.6496 142.678 72.1106 142.218L121.395 92.9338C122.559 91.7692 122.559 89.881 121.395 88.7164L102.141 69.4633Z" fill="#2859C5"/>
</svg>
