<svg width="64" height="64" viewBox="0 0 64 64" fill="none" xmlns="http://www.w3.org/2000/svg">
    <path d="M59.5017 15.9745C58.2935 15.4769 56.9344 16.1341 56.0873 17.1293C56.0297 17.1971 55.9707 17.2639 55.9099 17.3294C55.3042 17.9854 54.5714 18.5114 53.7563 18.8759C52.9413 19.2403 52.0608 19.4354 51.168 19.4495C50.2752 19.4635 49.3888 19.2962 48.5623 18.9576C47.7362 18.619 46.9874 18.1162 46.3612 17.4796C45.7353 16.8431 45.2448 16.086 44.9198 15.2543C44.5949 14.4227 44.4422 13.5337 44.4709 12.6413C44.4751 12.5119 44.4831 12.3829 44.4948 12.2543C44.6094 10.9987 44.1629 9.62893 43.0214 9.09348L41.0392 8.16351C39.9583 7.71309 38.7434 7.70706 37.6581 8.14678C36.5728 8.58651 35.7047 9.43652 35.2422 10.5123L20.6505 44.2176L18.4516 49.2149C18.0011 50.2961 17.9952 51.5107 18.4349 52.596C18.8746 53.6817 19.7246 54.5493 20.8004 55.012L41.0899 63.6575C42.1708 64.1082 43.3857 64.1141 44.471 63.6744C45.5563 63.2346 46.4242 62.3848 46.8869 61.3087L63.6773 22.4561C64.096 21.4172 64.1074 20.2586 63.7093 19.2117C63.3106 18.1648 62.5321 17.3068 61.5287 16.809L59.5017 15.9745Z" fill="#8FBFFA"/>
    <path fill-rule="evenodd" clip-rule="evenodd" d="M7.75072 9.11726C6.89427 8.13019 5.53536 7.47122 4.32694 7.96882L2.40837 8.75881C1.43048 9.24389 0.671611 10.08 0.283391 11.1003C-0.104832 12.1205 -0.093824 13.2496 0.314227 14.262L13.8285 45.5336L15.4133 41.932L29.9925 8.25554L29.9959 8.2475C30.0714 8.07236 30.1516 7.89984 30.2363 7.7301L28.0251 2.62247C27.5744 1.57409 26.7285 0.745746 25.6708 0.317216C24.6132 -0.111315 23.4292 -0.105456 22.3758 0.333521L20.4967 1.21509C19.3553 1.75057 18.91 3.12139 19.0133 4.37796C19.022 4.48409 19.0281 4.59054 19.0315 4.69723C19.0595 5.5669 18.9107 6.43323 18.5941 7.2437C18.2774 8.05417 17.7995 8.79195 17.1893 9.4123C16.5791 10.0326 15.8493 10.5226 15.0442 10.8526C14.239 11.1826 13.3753 11.3456 12.5052 11.332C11.6352 11.3183 10.777 11.1281 9.98259 10.773C9.18826 10.4179 8.47424 9.90514 7.88384 9.26592C7.83868 9.21705 7.79429 9.16745 7.75072 9.11726Z" fill="#2859C5"/>
    </svg>
    