<svg width="24" height="24" viewBox="0 0 24 24" fill="none" xmlns="http://www.w3.org/2000/svg">
<path d="M12 24C18.6274 24 24 18.6274 24 12C24 5.37258 18.6274 0 12 0C5.37258 0 0 5.37258 0 12C0 18.6274 5.37258 24 12 24Z" fill="#8FBFFA"/>
<path d="M9.8572 8.99944C9.8572 7.81597 10.8166 6.85658 12.0001 6.85658C13.1835 6.85658 14.1429 7.81597 14.1429 8.99944C14.1429 10.1829 13.1835 11.1423 12.0001 11.1423C11.29 11.1423 10.7143 11.7179 10.7143 12.428V13.5363C10.7143 14.2464 11.29 14.822 12.0001 14.822C12.7101 14.822 13.2858 14.2464 13.2858 13.5363C15.2645 12.9766 16.7143 11.1574 16.7143 8.99944C16.7143 6.39582 14.6037 4.28516 12.0001 4.28516C9.39643 4.28516 7.28577 6.39582 7.28577 8.99944C7.28577 9.70952 7.86141 10.2852 8.57148 10.2852C9.28156 10.2852 9.8572 9.70952 9.8572 8.99944Z" fill="#2859C5"/>
<path d="M12.0001 19.7137C12.9468 19.7137 13.7143 18.9462 13.7143 17.9994C13.7143 17.0527 12.9468 16.2852 12.0001 16.2852C11.0533 16.2852 10.2858 17.0527 10.2858 17.9994C10.2858 18.9462 11.0533 19.7137 12.0001 19.7137Z" fill="#2859C5"/>
</svg>
