<svg width="64" height="58" viewBox="0 0 64 58" fill="none" xmlns="http://www.w3.org/2000/svg">
<path d="M22.8569 27.4286C30.4311 27.4286 36.5712 21.2885 36.5712 13.7143C36.5712 6.1401 30.4311 0 22.8569 0C15.2827 0 9.14258 6.1401 9.14258 13.7143C9.14258 21.2885 15.2827 27.4286 22.8569 27.4286Z" fill="#8FBFFA"/>
<path d="M60.5709 45.7139C62.4644 45.7139 63.9994 47.249 63.9994 49.1424C63.9994 51.0359 62.4644 52.571 60.5709 52.571H37.7137C35.8202 52.571 34.2852 51.0359 34.2852 49.1424C34.2852 47.249 35.8202 45.7139 37.7137 45.7139H60.5709Z" fill="#2859C5"/>
<path fill-rule="evenodd" clip-rule="evenodd" d="M0 54.8573C0 42.2335 10.2335 32 22.8571 32C29.8088 32 36.0356 35.1033 40.2277 40.0001H37.7143C32.6648 40.0001 28.5714 44.0935 28.5714 49.143C28.5714 52.5853 30.4737 55.5832 33.2843 57.143H2.28571C1.02335 57.143 0 56.1194 0 54.8573Z" fill="#8FBFFA"/>
</svg>
