<svg width="16" height="16" viewBox="0 0 16 16" fill="none" xmlns="http://www.w3.org/2000/svg">
<path fill-rule="evenodd" clip-rule="evenodd" d="M14.1646 2.34587C14.4469 2.91042 14.2181 3.5969 13.6535 3.87917L5.41223 7.99984L13.6535 12.1205C14.2181 12.4028 14.4469 13.0892 14.1646 13.6538C13.8823 14.2183 13.1959 14.4471 12.6314 14.1649L2.34563 9.02203C1.95844 8.82844 1.71387 8.43272 1.71387 7.99984C1.71387 7.56695 1.95844 7.17122 2.34563 6.97763L12.6314 1.83477C13.1959 1.5525 13.8823 1.78132 14.1646 2.34587Z" fill="#8FBFFA"/>
<path d="M12.8567 6.28571C14.5925 6.28571 15.9996 4.87861 15.9996 3.14286C15.9996 1.4071 14.5925 0 12.8567 0C11.121 0 9.71387 1.4071 9.71387 3.14286C9.71387 4.87861 11.121 6.28571 12.8567 6.28571Z" fill="#2859C5"/>
<path d="M12.8567 15.9996C14.5925 15.9996 15.9996 14.5925 15.9996 12.8567C15.9996 11.121 14.5925 9.71387 12.8567 9.71387C11.121 9.71387 9.71387 11.121 9.71387 12.8567C9.71387 14.5925 11.121 15.9996 12.8567 15.9996Z" fill="#2859C5"/>
<path d="M3.14286 11.1431C4.87861 11.1431 6.28571 9.73603 6.28571 8.00028C6.28571 6.26453 4.87861 4.85742 3.14286 4.85742C1.4071 4.85742 0 6.26453 0 8.00028C0 9.73603 1.4071 11.1431 3.14286 11.1431Z" fill="#2859C5"/>
</svg>
