<svg width="82" height="24" viewBox="0 0 82 24" fill="none" xmlns="http://www.w3.org/2000/svg">
<g clip-path="url(#clip0_527_69)">
<path d="M17.8256 12.2058V7.76565C17.8256 7.50412 17.6081 7.24325 17.3174 7.24325H15.8291C14.5584 7.24325 13.3969 8.06418 12.8887 9.2959L11.4729 12.8411C11.4004 13.028 11.1097 12.9534 11.1097 12.7665V7.76565C11.1097 7.50412 10.8922 7.24325 10.6015 7.24325H9.11321C7.84239 7.24325 6.681 8.06418 6.17281 9.2959L3.66811 15.4915C3.55935 15.8277 3.77686 16.2008 4.14005 16.2008H7.18986C7.37113 16.2008 7.55305 16.0885 7.62555 15.9023L9.7315 10.6399C9.8403 10.416 10.1309 10.4907 10.1309 10.7145V15.6784C10.1309 15.9769 10.3485 16.2008 10.6029 16.2008H13.9064C14.0877 16.2008 14.2696 16.0885 14.3422 15.9023L16.4843 10.6399C16.5568 10.416 16.8475 10.4907 16.8475 10.7145V12.1318C16.7992 15.4425 17.9498 16.1961 18.9246 16.3797C21.1816 16.806 22.5229 14.8507 22.8377 11.9832C23.6729 4.36563 16.5099 -1.52407 8.82924 0.351082C4.48847 1.41137 1.16004 4.93645 0.257115 9.42836C-1.30371 17.1919 4.45758 24 11.6904 24C14.5912 24 17.308 22.9297 19.4475 20.9919C19.7577 20.7109 19.7752 20.2194 19.4824 19.9182L19.3677 19.8005C19.0991 19.5242 18.6701 19.5155 18.3848 19.7736C16.5293 21.4491 14.1864 22.3582 11.6904 22.3582C6.13589 22.3582 1.59775 17.7305 1.59775 11.9826C1.59775 6.23474 6.13522 1.64466 11.6904 1.64466C17.2456 1.64466 21.3548 5.56374 21.4273 11.124C21.4635 13.9606 20.3257 15.2327 19.4167 15.1244C18.5077 15.0161 17.9311 14.5597 17.8263 12.2052L17.8256 12.2058Z" fill="black"/>
<g clip-path="url(#clip1_527_69)">
<path d="M78.4189 8.24341H74.5193C72.9816 8.24341 71.7346 9.47308 71.7346 10.9894V13.0166C71.7346 14.5329 72.9816 15.7626 74.5193 15.7626H78.4189C79.9566 15.7626 81.2035 14.5329 81.2035 13.0166V10.9894C81.2035 9.47308 79.9566 8.24341 78.4189 8.24341ZM77.5784 14.0864C77.5784 14.5412 77.2042 14.9102 76.7431 14.9102H75.0711C74.61 14.9102 74.2358 14.5412 74.2358 14.0864V9.91959C74.2358 9.46484 74.61 9.09578 75.0711 9.09578H76.7431C77.2042 9.09578 77.5784 9.46484 77.5784 9.91959V14.0859V14.0864Z" fill="#010101"/>
<path d="M35.449 9.94656L34.2003 12.9266C34.1307 13.0935 33.879 13.0441 33.879 12.8634V8.6757C33.879 8.44009 33.6852 8.24951 33.4468 8.24951H33.0146H32.1391C31.0119 8.24951 29.9961 8.91954 29.5655 9.94656L27.3779 15.1673C27.2604 15.448 27.4693 15.7566 27.7772 15.7566H30.4438C30.6187 15.7566 30.7763 15.6528 30.8431 15.493L32.6927 11.0796C32.7623 10.9126 33.0141 10.962 33.0141 11.1427V15.3304C33.0141 15.566 33.2079 15.7566 33.4462 15.7566H33.8784H36.3272C36.5021 15.7566 36.6597 15.6528 36.7265 15.493L38.5761 11.0796C38.6458 10.9126 38.8974 10.962 38.8974 11.1427V15.3304C38.8974 15.566 39.0913 15.7566 39.3296 15.7566C39.5686 15.7566 39.7618 15.5655 39.7618 15.3304V8.6757C39.7618 8.44009 39.568 8.24951 39.3296 8.24951H38.8974H38.0219C36.8948 8.24951 35.8789 8.91954 35.4484 9.94656H35.449Z" fill="#010101"/>
<path d="M51.1255 10.9895V13.0166C51.1255 14.533 52.3724 15.7627 53.9101 15.7627H54.3183C54.5572 15.7627 54.7505 15.5715 54.7505 15.3365V9.52203C54.7505 9.28642 54.9444 9.09584 55.1827 9.09584H57.661C57.8999 9.09584 58.0932 9.28696 58.0932 9.52203V11.1323C58.0932 11.3679 58.2871 11.5585 58.5254 11.5585H60.1622C60.4011 11.5585 60.5944 11.3674 60.5944 11.1323V9.61594C60.5944 8.85748 59.9712 8.24292 59.2021 8.24292H53.9101C52.3724 8.24292 51.1255 9.47259 51.1255 10.989V10.9895Z" fill="#010101"/>
<path d="M40.821 10.9894V13.0165C40.821 14.5329 42.0681 15.7625 43.6057 15.7625H49.8579C50.0967 15.7625 50.29 15.5714 50.29 15.3364C50.29 15.1007 50.0962 14.9102 49.8579 14.9102H44.8783C44.6394 14.9102 44.4461 14.719 44.4461 14.484V12.8556C44.4461 12.62 44.6399 12.4294 44.8783 12.4294H49.8579C50.0967 12.4294 50.29 12.2383 50.29 12.0032V9.61692C50.29 8.85846 49.6668 8.2439 48.8977 8.2439H43.6057C42.0681 8.2439 40.821 9.47357 40.821 10.9899V10.9894ZM47.3567 11.5765H44.8783C44.6394 11.5765 44.4461 11.3854 44.4461 11.1503V9.5219C44.4461 9.28629 44.6399 9.09572 44.8783 9.09572H47.3567C47.5956 9.09572 47.7888 9.28684 47.7888 9.5219V11.1503C47.7888 11.3859 47.595 11.5765 47.3567 11.5765Z" fill="#010101"/>
<path d="M61.4297 10.9894V13.0165C61.4297 14.5329 62.6766 15.7625 64.2143 15.7625H70.4664C70.7053 15.7625 70.8986 15.5714 70.8986 15.3364C70.8986 15.1007 70.7048 14.9102 70.4664 14.9102H65.4869C65.248 14.9102 65.0547 14.719 65.0547 14.484V12.8556C65.0547 12.62 65.2486 12.4294 65.4869 12.4294H70.4664C70.7053 12.4294 70.8986 12.2383 70.8986 12.0032V9.61692C70.8986 8.85846 70.2754 8.2439 69.5063 8.2439H64.2143C62.6766 8.2439 61.4297 9.47357 61.4297 10.9899V10.9894ZM67.9652 11.5765H65.4869C65.248 11.5765 65.0547 11.3854 65.0547 11.1503V9.5219C65.0547 9.28629 65.2486 9.09572 65.4869 9.09572H67.9652C68.2042 9.09572 68.3974 9.28684 68.3974 9.5219V11.1503C68.3974 11.3859 68.2036 11.5765 67.9652 11.5765Z" fill="#010101"/>
</g>
</g>
<defs>
<clipPath id="clip0_527_69">
<rect width="81.3333" height="24" fill="white"/>
</clipPath>
<clipPath id="clip1_527_69">
<rect width="53.9885" height="7.52941" fill="white" transform="translate(27.3447 8.23535)"/>
</clipPath>
</defs>
</svg>
