<svg width="14" height="16" viewBox="0 0 14 16" fill="none" xmlns="http://www.w3.org/2000/svg">
<g id="task-list--task-list-work">
<path id="Subtract" fill-rule="evenodd" clip-rule="evenodd" d="M1.96429 0C1.50963 0 1.07359 0.180611 0.752103 0.502103C0.430611 0.823593 0.25 1.25963 0.25 1.71429V14.2857C0.25 14.7403 0.430611 15.1765 0.752103 15.4979C1.07359 15.8194 1.50962 16 1.96429 16H12.2501C12.7047 16 13.1407 15.8194 13.4622 15.4979C13.7837 15.1765 13.9643 14.7403 13.9643 14.2857V5.61624C13.9643 5.16159 13.7837 4.72555 13.4622 4.40406L9.56023 0.502103C9.23873 0.180611 8.8027 0 8.34805 0H1.96429Z" fill="#8FBFFA"/>
<path id="Vector (Stroke)" fill-rule="evenodd" clip-rule="evenodd" d="M7.17712 7.28488C7.17712 6.81149 7.56088 6.42773 8.03427 6.42773H10.8914C11.3648 6.42773 11.7485 6.81149 11.7485 7.28488C11.7485 7.75826 11.3648 8.14202 10.8914 8.14202H8.03427C7.56088 8.14202 7.17712 7.75826 7.17712 7.28488Z" fill="#2859C5"/>
<path id="Vector (Stroke)_2" fill-rule="evenodd" clip-rule="evenodd" d="M7.17712 11.822C7.17712 11.3486 7.56088 10.9648 8.03427 10.9648H10.8914C11.3648 10.9648 11.7485 11.3486 11.7485 11.822C11.7485 12.2954 11.3648 12.6792 10.8914 12.6792H8.03427C7.56088 12.6792 7.17712 12.2954 7.17712 11.822Z" fill="#2859C5"/>
<path id="Vector (Stroke)_3" fill-rule="evenodd" clip-rule="evenodd" d="M6.09178 9.78277C6.477 10.0579 6.56622 10.5933 6.29106 10.9785L4.69508 13.2129C4.54863 13.4179 4.3194 13.5481 4.0683 13.5689C3.81719 13.5897 3.56967 13.4989 3.3915 13.3207L2.43391 12.3631C2.09918 12.0284 2.09918 11.4857 2.43391 11.151C2.76865 10.8162 3.31136 10.8162 3.64609 11.151L3.88822 11.3931L4.89609 9.98205C5.17125 9.59684 5.70657 9.50762 6.09178 9.78277Z" fill="#2859C5"/>
<path id="Vector (Stroke)_4" fill-rule="evenodd" clip-rule="evenodd" d="M6.09178 5.17535C6.477 5.45051 6.56622 5.98583 6.29106 6.37104L4.69508 8.60542C4.54863 8.81045 4.3194 8.94065 4.0683 8.96143C3.81719 8.98222 3.56967 8.89146 3.3915 8.7133L2.43391 7.75572C2.09918 7.42097 2.09918 6.87827 2.43391 6.54353C2.76865 6.20879 3.31136 6.20879 3.64609 6.54353L3.88822 6.78565L4.89609 5.37463C5.17125 4.98942 5.70657 4.9002 6.09178 5.17535Z" fill="#2859C5"/>
</g>
</svg>
