<svg width="64" height="58" viewBox="0 0 64 58" fill="none" xmlns="http://www.w3.org/2000/svg">
    <path d="M22.8569 28.286C30.431 28.286 36.5712 22.1459 36.5712 14.5717C36.5712 6.99754 30.431 0.857422 22.8569 0.857422C15.2827 0.857422 9.14258 6.99754 9.14258 14.5717C9.14258 22.1459 15.2827 28.286 22.8569 28.286Z" fill="#8FBFFA"/>
    <path d="M0 55.7146C0 43.091 10.2335 32.8574 22.8571 32.8574C35.4808 32.8574 45.7143 43.091 45.7143 55.7146C45.7143 56.9767 44.6909 58.0003 43.4286 58.0003H2.28571C1.02335 58.0003 0 56.9767 0 55.7146Z" fill="#8FBFFA"/>
    <path fill-rule="evenodd" clip-rule="evenodd" d="M51.0969 58.0001H61.7141C62.9762 58.0001 63.9998 56.9766 63.9998 55.7144C63.9998 43.0909 53.7662 32.8573 41.1426 32.8573C40.7721 32.8573 40.4037 32.8661 40.0374 32.8835C46.9557 38.0978 51.4284 46.3837 51.4284 55.7144C51.4284 56.5085 51.3127 57.276 51.0969 58.0001ZM37.1758 27.7035C38.4316 28.0823 39.7633 28.286 41.1426 28.286C48.717 28.286 54.8569 22.1459 54.8569 14.5717C54.8569 6.99754 48.717 0.857422 41.1426 0.857422C39.7633 0.857422 38.4316 1.06103 37.1758 1.43987C40.3488 4.89788 42.2855 9.50862 42.2855 14.5717C42.2855 19.6348 40.3488 24.2455 37.1758 27.7035Z" fill="#2859C5"/>
    </svg>
    