<svg width="16" height="16" viewBox="0 0 16 16" fill="none" xmlns="http://www.w3.org/2000/svg">
<path fill-rule="evenodd" clip-rule="evenodd" d="M8 0C12.4183 0 16 3.58173 16 8C16 12.4183 12.4183 16 8 16C3.58173 16 0 12.4183 0 8C0 3.58173 3.58173 0 8 0Z" fill="#8FBFFA"/>
<path fill-rule="evenodd" clip-rule="evenodd" d="M10.0009 15.7485C9.3614 15.9132 8.69093 16.0008 8.00001 16.0008C5.12856 16.0008 2.61044 14.488 1.19922 12.2159C2.16161 10.8711 3.50442 9.92934 5.22386 9.92934C8.18013 9.92934 9.73792 12.3656 9.9612 15.0396C9.98035 15.2689 9.99572 15.51 10.0009 15.7485ZM14.942 11.9796C14.0828 13.4755 12.7538 14.6673 11.1566 15.3539C11.1899 15.2113 11.2016 15.062 11.1889 14.9104C11.0662 13.4408 10.5719 11.9453 9.60578 10.7872C9.55398 10.7251 9.50097 10.6642 9.44673 10.6045C10.0447 10.3019 10.7063 10.1436 11.3782 10.1436C12.1121 10.1436 12.8336 10.3324 13.4735 10.6918C13.7503 10.8473 14.0077 11.0324 14.2416 11.2432L14.942 11.9796ZM7.97065 6.27295C7.97065 4.85583 6.82185 3.70703 5.40474 3.70703C3.98762 3.70703 2.83882 4.85583 2.83882 6.27295C2.83882 7.69007 3.98762 8.83887 5.40474 8.83887C6.82185 8.83887 7.97065 7.69007 7.97065 6.27295ZM11.3577 4.89203C12.5318 4.89203 13.4834 5.84377 13.4834 7.01782C13.4834 8.19187 12.5318 9.14361 11.3577 9.14361C10.1837 9.14361 9.2319 8.19187 9.2319 7.01782C9.2319 5.84377 10.1837 4.89203 11.3577 4.89203Z" fill="#2859C5"/>
</svg>
