<svg width="40" height="40" viewBox="0 0 40 40" fill="none" xmlns="http://www.w3.org/2000/svg">
<g clip-path="url(#clip0_6902_7134)">
<path d="M22.0237 0.71388C24.0741 -0.336796 26.5873 0.336726 27.8382 2.27167C28.6215 3.48393 29.9404 4.24526 31.3818 4.31771C33.683 4.43318 35.5226 6.27285 35.6381 8.57398C35.7106 10.0154 36.4719 11.3339 37.6841 12.1177C39.6191 13.3681 40.2926 15.8813 39.2419 17.9317C38.5838 19.2164 38.5838 20.7391 39.2419 22.0233C40.2926 24.0738 39.6191 26.587 37.6841 27.8374C36.4719 28.6207 35.7106 29.9396 35.6381 31.3811C35.5226 33.6822 33.683 35.5219 31.3818 35.6374C29.9404 35.7098 28.6219 36.4711 27.8382 37.6834C26.5877 39.6183 24.0745 40.2919 22.0241 39.2412C20.7394 38.583 19.2167 38.583 17.9325 39.2412C15.8821 40.2919 13.3689 39.6183 12.1184 37.6834C11.3351 36.4711 10.0162 35.7098 8.57473 35.6374C6.27361 35.5219 4.43394 33.6822 4.31846 31.3811C4.24602 29.9396 3.48468 28.6211 2.27243 27.8374C0.336604 26.5874 -0.336479 24.0742 0.713758 22.0238C1.37191 20.7391 1.37191 19.2164 0.713758 17.9322C-0.336918 15.8817 0.336604 13.3685 2.27155 12.1181C3.4838 11.3348 4.24514 10.0159 4.31758 8.57442C4.43306 6.27329 6.27273 4.43362 8.57386 4.31814C10.0153 4.2457 11.3338 3.48436 12.1175 2.27211C13.368 0.337165 15.8812 -0.336357 17.9316 0.714319C19.2163 1.37204 20.739 1.37204 22.0237 0.71388Z" fill="#0083F9"/>
<path d="M16.4387 29.3297V20.8119L27.7929 15.7363L32.0518 19.9952L16.4387 29.3297Z" fill="#0077E3"/>
<path d="M16.4388 29.33L7.90344 20.7991L12.1623 16.5358L16.4388 20.8122L26.6119 10.626L30.8708 14.8805L16.4388 29.33Z" fill="white"/>
</g>
<defs>
<clipPath id="clip0_6902_7134">
<rect width="40" height="40" fill="white"/>
</clipPath>
</defs>
</svg>
