<svg width="64" height="64" viewBox="0 0 64 64" fill="none" xmlns="http://www.w3.org/2000/svg">
<path fill-rule="evenodd" clip-rule="evenodd" d="M22.465 0C20.6464 0 18.9022 0.722446 17.6162 2.00841L2.00841 17.6162C0.722446 18.9022 0 20.6464 0 22.465V41.535C0 43.3536 0.722446 45.0978 2.00841 46.3835L17.6162 61.9918C18.9022 63.2777 20.6464 64 22.465 64H41.535C43.3536 64 45.0978 63.2777 46.3835 61.9918L61.9918 46.3835C63.2777 45.0978 64 43.3536 64 41.535V22.465C64 20.6464 63.2777 18.9022 61.9918 17.6162L46.3835 2.00841C45.0978 0.722446 43.3536 0 41.535 0H22.465Z" fill="#FFE6E6"/>
</svg>
