<svg width="12" height="12" viewBox="0 0 12 12" fill="none" xmlns="http://www.w3.org/2000/svg">
<g clip-path="url(#clip0_4876_4037)">
<path d="M0 3.69063C0 2.99071 0.66678 2.57153 1.28571 2.57153H10.7143C11.3332 2.57153 12 2.99071 12 3.69063V4.90504C12 5.44297 11.6061 5.81507 11.1429 5.9585V10.7144C11.1429 11.0554 11.0074 11.3824 10.7663 11.6236C10.5252 11.8647 10.1981 12.0001 9.85714 12.0001H2.14286C1.80186 12.0001 1.47483 11.8647 1.23372 11.6236C0.992606 11.3824 0.857143 11.0554 0.857143 10.7144V5.9585C0.393855 5.81507 0 5.44297 0 4.90504V3.69063Z" fill="currentColor"/>
<path fill-rule="evenodd" clip-rule="evenodd" d="M3.10417 0.735206C3.29429 0.435364 3.69149 0.346424 3.99134 0.536552L6.00005 1.81027L8.00878 0.536552C8.30862 0.346424 8.70578 0.435364 8.89598 0.735206C9.08609 1.03504 8.99712 1.43224 8.69729 1.62237L6.53575 2.993V5.95941H11.1429V7.03083H6.53575V12.0001H5.46432V7.03083H0.857178V5.95941H5.46432V2.99297L3.30282 1.62237C3.00297 1.43224 2.91404 1.03504 3.10417 0.735206Z" fill="currentColor"/>
</g>
<defs>
<clipPath id="clip0_4876_4037">
<rect width="12" height="12" fill="currentColor"/>
</clipPath>
</defs>
</svg>
