<svg width="29" height="29" viewBox="0 0 29 29" fill="none" xmlns="http://www.w3.org/2000/svg">
<rect width="29" height="29" fill="black"/>
<path d="M20.8754 10.9936C20.5734 10.8692 20.2336 11.0335 20.0218 11.2823C20.0074 11.2993 19.9927 11.316 19.9775 11.3324C19.8261 11.4963 19.6429 11.6279 19.4391 11.719C19.2353 11.8101 19.0152 11.8589 18.792 11.8624C18.5688 11.8659 18.3472 11.824 18.1406 11.7394C17.9341 11.6547 17.7469 11.529 17.5903 11.3699C17.4338 11.2108 17.3112 11.0215 17.23 10.8136C17.1487 10.6057 17.1105 10.3834 17.1177 10.1603C17.1188 10.128 17.1208 10.0957 17.1237 10.0636C17.1523 9.74967 17.0407 9.40723 16.7554 9.27337L16.2598 9.04088C15.9896 8.92827 15.6858 8.92676 15.4145 9.0367C15.1432 9.14663 14.9262 9.35913 14.8105 9.62808L11.1626 18.0544L10.6129 19.3037C10.5003 19.574 10.4988 19.8777 10.6087 20.149C10.7187 20.4204 10.9312 20.6373 11.2001 20.753L16.2725 22.9144C16.5427 23.027 16.8464 23.0285 17.1178 22.9186C17.3891 22.8086 17.6061 22.5962 17.7217 22.3272L21.9193 12.614C22.024 12.3543 22.0269 12.0646 21.9273 11.8029C21.8277 11.5412 21.633 11.3267 21.3822 11.2023L20.8754 10.9936Z" fill="#8FBFFA"/>
<path fill-rule="evenodd" clip-rule="evenodd" d="M7.93768 9.27931C7.72357 9.03255 7.38384 8.86781 7.08173 8.99221L6.60209 9.1897C6.35762 9.31097 6.1679 9.52001 6.07085 9.77506C5.97379 10.0301 5.97654 10.3124 6.07856 10.5655L9.45713 18.3834L9.85332 17.483L13.4981 9.06389L13.499 9.06187C13.5179 9.01809 13.5379 8.97496 13.5591 8.93253L13.0063 7.65562C12.8936 7.39352 12.6821 7.18644 12.4177 7.0793C12.1533 6.97217 11.8573 6.97364 11.594 7.08338L11.1242 7.30377C10.8388 7.43764 10.7275 7.78035 10.7533 8.09449C10.7555 8.12102 10.757 8.14763 10.7579 8.17431C10.7649 8.39173 10.7277 8.60831 10.6485 8.81093C10.5693 9.01354 10.4499 9.19799 10.2973 9.35307C10.1448 9.50815 9.96232 9.63065 9.76104 9.71314C9.55975 9.79565 9.34382 9.83641 9.12631 9.83299C8.9088 9.82958 8.69424 9.78203 8.49565 9.69325C8.29706 9.60447 8.11856 9.47629 7.97096 9.31648C7.95967 9.30426 7.94857 9.29186 7.93768 9.27931Z" fill="#2859C5"/>
</svg>
